<svg xmlns="http://www.w3.org/2000/svg" width="1200" height="174" viewBox="0 0 1200 174" role="img" aria-label="階層と共有ジャンクション" font-family="Segoe UI, Noto Sans JP, sans-serif" font-size="11" fill="#243d44" data-view="mission"><title>階層と共有ジャンクション</title><defs><marker id="arrow" viewBox="0 0 10 10" refX="10" refY="5" markerWidth="7" markerHeight="7" orient="auto-start-reverse" markerUnits="userSpaceOnUse"><path d="M0,1 L10,5 L0,9 Z" fill="context-stroke"/></marker><marker id="state-arrow" viewBox="0 0 10 10" refX="19" refY="5" markerWidth="7" markerHeight="7" orient="auto-start-reverse" markerUnits="userSpaceOnUse"><path d="M0,1 L10,5 L0,9 Z" fill="context-stroke"/></marker><clipPath id="time-clip"><rect x="152" y="32" width="1048" height="174"/></clipPath></defs><rect width="100%" height="100%" fill="white"/><rect x="0" y="42" width="1200" height="38" fill="#ffffff"/><path d="M0,80 H1200" stroke="#e7edef"/><rect x="0" y="80" width="1200" height="70" fill="#fafcfc"/><path d="M0,150 H1200" stroke="#e7edef"/><path d="M166,32 V164" stroke="#eef2f3"/><text x="166" y="21" text-anchor="middle" font-size="10" fill="#77868c">0</text><path d="M332.3333333333333,32 V164" stroke="#eef2f3"/><text x="332.3333333333333" y="21" text-anchor="middle" font-size="10" fill="#77868c">10</text><path d="M498.66666666666663,32 V164" stroke="#eef2f3"/><text x="498.66666666666663" y="21" text-anchor="middle" font-size="10" fill="#77868c">20</text><path d="M665,32 V164" stroke="#eef2f3"/><text x="665" y="21" text-anchor="middle" font-size="10" fill="#77868c">30</text><path d="M831.3333333333333,32 V164" stroke="#eef2f3"/><text x="831.3333333333333" y="21" text-anchor="middle" font-size="10" fill="#77868c">40</text><path d="M997.6666666666666,32 V164" stroke="#eef2f3"/><text x="997.6666666666666" y="21" text-anchor="middle" font-size="10" fill="#77868c">50</text><path d="M1164,32 V164" stroke="#eef2f3"/><text x="1164" y="21" text-anchor="middle" font-size="10" fill="#77868c">60</text><text x="12" y="21" font-size="10" fill="#77868c">ACTOR / T+ (minutes)</text><g clip-path="url(#time-clip)"><g class="edge task"><title>通信妨害</title><path class="line" data-polarity="positive" d="M565.20,104.00 L914.50,104.00" fill="none" stroke="#485e66" stroke-width="1.6" opacity="0.76" stroke-linejoin="round" marker-end="url(#state-arrow)"/></g><g class="edge causal"><title>通信を妨害（折りたたみ表示）</title><path class="line" data-polarity="negative" d="M864.60,100.00 L864.60,100.00 L865.35,98.11 L866.72,96.22 L866.55,94.33 L864.53,92.44 L862.56,90.56 L861.80,88.67 L863.17,86.78 L864.65,84.89 L864.60,83.00 L864.60,83.00 L864.60,83.00 L864.60,83.00 L866.57,84.10 L868.55,84.34 L870.52,82.51 L872.49,80.64 L874.47,80.29 L876.44,81.69 L878.41,83.94 L880.39,85.58 L882.36,85.55 L884.33,83.88 L886.31,81.64 L888.28,80.28 L890.25,80.67 L892.23,82.57 L894.20,84.74 L896.18,85.79 L898.15,85.04 L900.12,82.97 L902.10,80.92 L904.07,80.21 L906.04,81.30 L908.02,83.49 L909.99,85.36 L911.96,85.71 L913.94,84.31 L915.91,82.07 L917.88,80.43 L919.86,80.45 L921.83,82.11 L923.80,84.35 L925.78,85.72 L927.75,85.33 L929.72,83.44 L931.70,81.26 L933.67,80.21 L935.64,80.95 L937.62,83.02 L939.59,85.07 L941.56,85.79 L943.54,84.70 L945.51,82.52 L947.48,80.65 L949.46,80.29 L951.43,81.68 L953.41,83.93 L955.38,85.57 L957.35,85.56 L959.33,83.89 L961.30,81.65 L963.27,80.28 L965.25,80.67 L967.22,82.56 L969.19,84.73 L971.17,85.79 L973.14,85.05 L975.11,82.98 L977.09,81.37 L979.06,81.90 L981.03,83.00 L981.03,83.00 L981.03,83.00 L981.03,83.00 L981.18,81.11 L982.72,79.22 L983.80,77.33 L982.69,75.44 L980.59,73.56 L978.76,71.67 L978.95,69.78 L980.43,67.89 L981.03,66.00 L981.03,66.00" fill="none" stroke="#485e66" stroke-width="1.6" opacity="1" stroke-linejoin="round" marker-end="url(#arrow)"/></g><g class="junction" data-time="42"><title>Task上の時刻 42</title><circle cx="864.6" cy="104" r="4" fill="white" stroke="#485e66" stroke-width="1.6"/></g><g class="state" opacity="1"><title>妨害準備 · T+24</title><circle class="body" cx="565.2" cy="104" r="7" fill="#a75353" stroke="#a75353" stroke-width="1.6"/><text x="565.2" y="126" text-anchor="middle" font-size="11">妨害準備</text></g><g class="state" opacity="1"><title>妨害中 · T+45</title><circle class="body" cx="914.5" cy="104" r="7" fill="#a75353" stroke="#a75353" stroke-width="1.6"/><text x="914.5" y="126" text-anchor="middle" font-size="11">妨害中</text></g><g class="edge-label"><title>予定 · 通信妨害</title><rect x="690.19" y="82" width="99.32" height="18" rx="3" fill="white" fill-opacity=".94"/><text x="739.85" y="94" text-anchor="middle">予定 · 通信妨害</text></g><g class="edge-label"><title>通信を妨害</title><rect x="890.3166666666666" y="61" width="65" height="18" rx="3" fill="white" fill-opacity=".94"/><text x="922.8166666666666" y="73" text-anchor="middle">通信を妨害</text></g></g><g class="actor"><rect x="0" y="43" width="149" height="36" fill="#f6f9f9"/><path d="M2,50 V72" stroke="#236d78" stroke-width="3"/><text class="collapse-toggle" data-collapse="group" x="12" y="70" font-size="13">▸</text><text x="28" y="70" font-weight="600" font-size="11">水中戦力</text><title>水中戦力</title></g><g class="actor"><rect x="0" y="81" width="149" height="68" fill="#f6f9f9"/><path d="M2,88 V142" stroke="#a75353" stroke-width="3"/><text x="28" y="108" font-weight="600" font-size="11">敵妨害</text><title>敵妨害</title></g></svg>
