<svg xmlns="http://www.w3.org/2000/svg" width="1200" height="492" viewBox="0 0 1200 492" role="img" aria-label="Technology / Gap — 介入経路の検討" font-family="Segoe UI, Noto Sans JP, sans-serif" font-size="11" fill="#243d44" data-view="mission"><title>Technology / Gap — 介入経路の検討</title><defs><marker id="arrow" viewBox="0 0 10 10" refX="10" refY="5" markerWidth="7" markerHeight="7" orient="auto-start-reverse" markerUnits="userSpaceOnUse"><path d="M0,1 L10,5 L0,9 Z" fill="context-stroke"/></marker><marker id="state-arrow" viewBox="0 0 10 10" refX="19" refY="5" markerWidth="7" markerHeight="7" orient="auto-start-reverse" markerUnits="userSpaceOnUse"><path d="M0,1 L10,5 L0,9 Z" fill="context-stroke"/></marker><clipPath id="time-clip"><rect x="152" y="32" width="1048" height="492"/></clipPath></defs><rect width="100%" height="100%" fill="white"/><rect x="0" y="54" width="1200" height="134" fill="#ffffff"/><path d="M0,188 H1200" stroke="#e7edef"/><rect x="0" y="188" width="1200" height="70" fill="#fafcfc"/><path d="M0,258 H1200" stroke="#e7edef"/><rect x="0" y="258" width="1200" height="70" fill="#ffffff"/><path d="M0,328 H1200" stroke="#e7edef"/><rect x="0" y="328" width="1200" height="70" fill="#fafcfc"/><path d="M0,398 H1200" stroke="#e7edef"/><rect x="0" y="398" width="1200" height="70" fill="#ffffff"/><path d="M0,468 H1200" stroke="#e7edef"/><path d="M166,32 V482" stroke="#eef2f3"/><text x="166" y="21" text-anchor="middle" font-size="10" fill="#77868c">0</text><path d="M332.3333333333333,32 V482" stroke="#eef2f3"/><text x="332.3333333333333" y="21" text-anchor="middle" font-size="10" fill="#77868c">10</text><path d="M498.66666666666663,32 V482" stroke="#eef2f3"/><text x="498.66666666666663" y="21" text-anchor="middle" font-size="10" fill="#77868c">20</text><path d="M665,32 V482" stroke="#eef2f3"/><text x="665" y="21" text-anchor="middle" font-size="10" fill="#77868c">30</text><path d="M831.3333333333333,32 V482" stroke="#eef2f3"/><text x="831.3333333333333" y="21" text-anchor="middle" font-size="10" fill="#77868c">40</text><path d="M997.6666666666666,32 V482" stroke="#eef2f3"/><text x="997.6666666666666" y="21" text-anchor="middle" font-size="10" fill="#77868c">50</text><path d="M1164,32 V482" stroke="#eef2f3"/><text x="1164" y="21" text-anchor="middle" font-size="10" fill="#77868c">60</text><text x="12" y="21" font-size="10" fill="#77868c">ACTOR / T+ (minutes)</text><g clip-path="url(#time-clip)"><g class="edge task"><title>敵UUV · 進出</title><path class="line" data-polarity="positive" d="M166.00,78.00 L365.60,78.00" fill="none" stroke="#a75353" stroke-width="1.6" opacity="1" stroke-linejoin="round" marker-end="url(#state-arrow)"/></g><g class="edge task"><title>敵UUV · 任務遂行</title><path class="line" data-polarity="positive" d="M398.87,78.00 L731.53,78.00" fill="none" stroke="#a75353" stroke-width="1.6" opacity="1" stroke-linejoin="round" marker-end="url(#state-arrow)"/></g><g class="edge task"><title>敵UUV · 離脱</title><path class="line" data-polarity="positive" d="M764.80,78.00 L897.87,78.00" fill="none" stroke="#a75353" stroke-width="1.6" opacity="1" stroke-linejoin="round" marker-end="url(#state-arrow)"/></g><g class="edge task"><title>ソナー · 監視</title><path class="line" data-polarity="positive" d="M166.00,352.00 L398.87,352.00" fill="none" stroke="#236d78" stroke-width="1.6" opacity="1" stroke-linejoin="round" marker-end="url(#state-arrow)"/></g><g class="edge task"><title>ソナー · 探知・追尾</title><path class="line" data-polarity="positive" d="M398.87,352.00 L964.40,352.00" fill="none" stroke="#236d78" stroke-width="1.6" opacity="1" stroke-linejoin="round" marker-end="url(#state-arrow)"/></g><g class="edge task"><title>管制 · 待機</title><path class="line" data-polarity="positive" d="M166.00,212.00 L465.40,212.00" fill="none" stroke="#8061a8" stroke-width="1.6" opacity="1" stroke-linejoin="round" marker-end="url(#state-arrow)"/></g><g class="edge task"><title>管制 · 識別</title><path class="line" data-polarity="positive" d="M465.40,212.00 L581.83,212.00" fill="none" stroke="#8061a8" stroke-width="1.6" opacity="1" stroke-linejoin="round" marker-end="url(#state-arrow)"/></g><g class="edge task"><title>管制 · 交戦判断</title><path class="line" data-polarity="positive" d="M615.10,212.00 L714.90,212.00" fill="none" stroke="#8061a8" stroke-width="1.6" opacity="1" stroke-linejoin="round" marker-end="url(#state-arrow)"/></g><g class="edge task"><title>潜水艦 · 哨戒</title><path class="line" data-polarity="positive" d="M166.00,282.00 L648.37,282.00" fill="none" stroke="#a56c24" stroke-width="1.6" opacity="1" stroke-linejoin="round" marker-end="url(#state-arrow)"/></g><g class="edge task"><title>潜水艦 · 接敵</title><path class="line" data-polarity="positive" d="M681.63,282.00 L798.07,282.00" fill="none" stroke="#a56c24" stroke-width="1.6" opacity="1" stroke-linejoin="round" marker-end="url(#state-arrow)"/></g><g class="edge task"><title>潜水艦 · 攻撃</title><path class="line" data-polarity="positive" d="M831.33,282.00 L931.13,282.00" fill="none" stroke="#a56c24" stroke-width="1.6" opacity="1" stroke-linejoin="round" marker-end="url(#state-arrow)"/></g><g class="edge task"><title>魚雷 · 待機</title><path class="line" data-polarity="positive" d="M166.00,422.00 L831.33,422.00" fill="none" stroke="#397aa0" stroke-width="1.6" opacity="1" stroke-linejoin="round" marker-end="url(#state-arrow)"/></g><g class="edge task"><title>魚雷 · 誘導</title><path class="line" data-polarity="positive" d="M831.33,422.00 L931.13,422.00" fill="none" stroke="#397aa0" stroke-width="1.6" opacity="1" stroke-linejoin="round" marker-end="url(#state-arrow)"/></g><g class="edge task"><title>敵UUV · 移行</title><path class="line" data-polarity="positive" d="M365.60,78.00 L398.87,78.00" fill="none" stroke="#a75353" stroke-width="1.6" opacity="1" stroke-linejoin="round" marker-end="url(#state-arrow)"/></g><g class="edge task"><title>敵UUV · 移行</title><path class="line" data-polarity="positive" d="M731.53,78.00 L764.80,78.00" fill="none" stroke="#a75353" stroke-width="1.6" opacity="1" stroke-linejoin="round" marker-end="url(#state-arrow)"/></g><g class="edge task"><title>敵UUV · 離脱成立</title><path class="line" data-polarity="positive" d="M897.87,78.00 L1030.93,78.00" fill="none" stroke="#a75353" stroke-width="1.6" opacity="1" stroke-linejoin="round" marker-end="url(#state-arrow)"/></g><g class="edge task"><title>管制 · 移行</title><path class="line" data-polarity="positive" d="M581.83,212.00 L615.10,212.00" fill="none" stroke="#8061a8" stroke-width="1.6" opacity="1" stroke-linejoin="round" marker-end="url(#state-arrow)"/></g><g class="edge task"><title>潜水艦 · 移行</title><path class="line" data-polarity="positive" d="M648.37,282.00 L681.63,282.00" fill="none" stroke="#a56c24" stroke-width="1.6" opacity="1" stroke-linejoin="round" marker-end="url(#state-arrow)"/></g><g class="edge task"><title>潜水艦 · 移行</title><path class="line" data-polarity="positive" d="M798.07,282.00 L831.33,282.00" fill="none" stroke="#a56c24" stroke-width="1.6" opacity="1" stroke-linejoin="round" marker-end="url(#state-arrow)"/></g><g class="edge outcome"><title>敵UUV · 阻止成功</title><path class="line" data-polarity="positive" d="M931.13,82.00 L931.13,135.00" fill="none" stroke="#a75353" stroke-width="1.6" opacity="1" stroke-linejoin="round" marker-end="url(#arrow)"/></g><g class="edge causal"><title>敵UUV · 発見</title><defs><marker id="causal-arrow-20" viewBox="0 0 10 10" refX="10" refY="5" markerWidth="7" markerHeight="7" orient="90" markerUnits="userSpaceOnUse"><path d="M0,1 L10,5 L0,9 Z" fill="#a75353"/></marker></defs><path class="line" data-polarity="positive" d="M398.87,85.00 L398.87,90.00 L396.07,90.00 L396.07,92.50 L401.67,92.50 L401.67,100.00 L396.07,100.00 L396.07,107.50 L401.67,107.50 L401.67,115.00 L396.07,115.00 L396.07,122.50 L401.67,122.50 L401.67,130.00 L396.07,130.00 L396.07,137.50 L401.67,137.50 L401.67,145.00 L396.07,145.00 L396.07,152.50 L401.67,152.50 L401.67,160.00 L396.07,160.00 L396.07,167.50 L401.67,167.50 L401.67,175.00 L396.07,175.00 L396.07,182.50 L401.67,182.50 L401.67,190.00 L396.07,190.00 L396.07,197.50 L401.67,197.50 L401.67,205.00 L396.07,205.00 L396.07,212.50 L401.67,212.50 L401.67,220.00 L396.07,220.00 L396.07,227.50 L401.67,227.50 L401.67,235.00 L396.07,235.00 L396.07,242.50 L401.67,242.50 L401.67,250.00 L396.07,250.00 L396.07,257.50 L401.67,257.50 L401.67,265.00 L396.07,265.00 L396.07,272.50 L401.67,272.50 L401.67,280.00 L396.07,280.00 L396.07,287.50 L401.67,287.50 L401.67,295.00 L396.07,295.00 L396.07,302.50 L401.67,302.50 L401.67,310.00 L396.07,310.00 L396.07,317.50 L401.67,317.50 L401.67,325.00 L396.07,325.00 L396.07,332.50 L401.67,332.50 L401.67,338.00 L398.87,338.00 L398.87,345.00" fill="none" stroke="#a75353" stroke-width="1.6" opacity="1" stroke-linejoin="miter" marker-end="url(#causal-arrow-20)"/></g><g class="edge causal"><title>ソナー · 探知情報</title><defs><marker id="causal-arrow-21" viewBox="0 0 10 10" refX="10" refY="5" markerWidth="7" markerHeight="7" orient="-82.6527880931104" markerUnits="userSpaceOnUse"><path d="M0,1 L10,5 L0,9 Z" fill="#236d78"/></marker></defs><path class="line" data-polarity="positive" d="M448.77,348.00 L449.41,343.04 L452.18,343.40 L452.50,340.92 L446.95,340.20 L447.91,332.77 L453.46,333.48 L454.42,326.04 L448.87,325.33 L449.83,317.89 L455.38,318.60 L456.34,311.17 L450.79,310.45 L451.74,303.01 L457.30,303.73 L458.26,296.29 L452.70,295.57 L453.66,288.13 L459.22,288.85 L460.18,281.41 L454.62,280.70 L455.58,273.26 L461.13,273.97 L462.09,266.54 L456.54,265.82 L457.50,258.38 L463.05,259.10 L464.01,251.66 L458.46,250.94 L459.42,243.50 L464.97,244.22 L465.93,236.78 L460.38,236.07 L461.34,228.63 L466.89,229.34 L467.28,226.30 L464.50,225.94 L465.40,219.00" fill="none" stroke="#236d78" stroke-width="1.6" opacity="1" stroke-linejoin="miter" marker-end="url(#causal-arrow-21)"/></g><g class="edge causal"><title>管制 · 接敵指示</title><defs><marker id="causal-arrow-22" viewBox="0 0 10 10" refX="10" refY="5" markerWidth="7" markerHeight="7" orient="74.25574620950704" markerUnits="userSpaceOnUse"><path d="M0,1 L10,5 L0,9 Z" fill="#8061a8"/></marker></defs><path class="line" data-polarity="positive" d="M665.00,216.00 L666.36,220.81 L663.66,221.57 L664.34,223.98 L669.73,222.46 L671.77,229.68 L666.38,231.20 L668.41,238.42 L673.80,236.90 L675.84,244.11 L670.45,245.63 L672.48,252.85 L677.87,251.33 L679.91,258.55 L674.52,260.07 L676.55,267.29 L681.94,265.77 L682.43,267.50 L679.73,268.26 L681.63,275.00" fill="none" stroke="#8061a8" stroke-width="1.6" opacity="1" stroke-linejoin="miter" marker-end="url(#causal-arrow-22)"/></g><g class="edge causal"><title>潜水艦 · 発射</title><defs><marker id="causal-arrow-23" viewBox="0 0 10 10" refX="10" refY="5" markerWidth="7" markerHeight="7" orient="90" markerUnits="userSpaceOnUse"><path d="M0,1 L10,5 L0,9 Z" fill="#a56c24"/></marker></defs><path class="line" data-polarity="positive" d="M831.33,289.00 L831.33,294.00 L828.53,294.00 L828.53,296.50 L834.13,296.50 L834.13,304.00 L828.53,304.00 L828.53,311.50 L834.13,311.50 L834.13,319.00 L828.53,319.00 L828.53,326.50 L834.13,326.50 L834.13,334.00 L828.53,334.00 L828.53,341.50 L834.13,341.50 L834.13,349.00 L828.53,349.00 L828.53,356.50 L834.13,356.50 L834.13,364.00 L828.53,364.00 L828.53,371.50 L834.13,371.50 L834.13,379.00 L828.53,379.00 L828.53,386.50 L834.13,386.50 L834.13,394.00 L828.53,394.00 L828.53,401.50 L834.13,401.50 L834.13,408.00 L831.33,408.00 L831.33,415.00" fill="none" stroke="#a56c24" stroke-width="1.6" opacity="1" stroke-linejoin="miter" marker-end="url(#causal-arrow-23)"/></g><g class="edge causal"><title>魚雷 · 命中・離脱阻止</title><defs><marker id="causal-arrow-24" viewBox="0 0 10 10" refX="10" refY="5" markerWidth="7" markerHeight="7" orient="-143.13010235415598" markerUnits="userSpaceOnUse"><path d="M0,1 L10,5 L0,9 Z" fill="#397aa0"/></marker></defs><path class="line" data-polarity="negative" d="M931.13,415.00 L931.13,415.00 L933.23,414.47 L935.67,414.38 L936.92,412.72 L937.18,409.73 L938.26,407.84 L940.41,407.37 L942.33,406.60 L943.93,405.40 L945.53,404.20 L947.13,403.00 L947.13,403.00 L947.13,403.00 L947.13,403.00 L947.37,401.01 L945.83,399.01 L944.35,397.02 L945.03,395.03 L947.10,393.03 L949.18,391.04 L949.92,389.05 L948.83,387.05 L946.62,385.06 L944.75,383.06 L944.45,381.07 L945.91,379.08 L948.18,377.08 L949.76,375.09 L949.61,373.10 L947.83,371.10 L945.59,369.11 L944.37,367.12 L944.96,365.12 L946.98,363.13 L949.10,361.14 L949.93,359.14 L948.92,357.15 L946.73,355.15 L944.81,353.16 L944.42,351.17 L945.81,349.17 L948.08,347.18 L949.72,345.19 L949.66,343.19 L947.94,341.20 L945.69,339.21 L944.39,337.21 L944.89,335.22 L946.87,333.23 L949.02,331.23 L949.93,329.24 L949.00,327.25 L946.84,325.25 L944.87,323.26 L944.39,321.26 L945.71,319.27 L947.97,317.28 L949.67,315.28 L949.71,313.29 L948.05,311.30 L945.79,309.30 L944.41,307.31 L944.82,305.32 L946.76,303.32 L948.94,301.33 L949.93,299.34 L949.09,297.34 L946.96,295.35 L944.94,293.35 L944.37,291.36 L945.62,289.37 L947.86,287.37 L949.63,285.38 L949.75,283.39 L948.16,281.39 L945.89,279.40 L944.44,277.41 L944.76,275.41 L946.64,273.42 L948.85,271.43 L949.93,269.43 L949.17,267.44 L947.07,265.45 L945.01,263.45 L944.35,261.46 L945.52,259.46 L947.75,257.47 L949.57,255.48 L949.79,253.48 L948.26,251.49 L945.99,249.50 L944.47,247.50 L944.70,245.51 L946.53,243.52 L948.76,241.52 L949.91,239.53 L949.24,237.54 L947.18,235.54 L945.09,233.55 L944.34,231.55 L945.43,229.56 L947.64,227.57 L949.51,225.57 L949.82,223.58 L948.36,221.59 L946.10,219.59 L944.51,217.60 L944.65,215.61 L946.42,213.61 L948.66,211.62 L949.90,209.63 L949.31,207.63 L947.30,205.64 L945.17,203.65 L944.34,201.65 L945.34,199.66 L947.53,197.66 L949.45,195.67 L949.85,193.68 L948.47,191.68 L946.20,189.69 L944.55,187.70 L944.60,185.70 L946.31,183.71 L948.57,181.72 L949.88,179.72 L949.38,177.73 L947.41,175.74 L945.25,173.74 L944.33,171.75 L945.26,169.75 L947.41,167.76 L949.39,165.77 L949.88,163.77 L948.56,161.78 L946.31,159.79 L944.60,157.79 L944.55,155.80 L946.21,153.81 L948.47,151.81 L949.85,149.82 L949.45,147.83 L947.52,145.83 L945.34,143.84 L944.34,141.85 L945.17,139.85 L947.30,137.86 L949.32,135.86 L949.90,133.87 L948.66,131.88 L946.42,129.88 L944.65,127.89 L944.51,125.90 L946.10,123.90 L948.37,121.91 L949.83,119.92 L949.51,117.92 L947.63,115.93 L945.43,113.94 L944.34,111.94 L945.09,109.95 L947.19,107.95 L949.23,105.96 L948.78,103.97 L947.45,101.97 L947.13,99.98 L947.13,97.99 L947.13,95.99 L947.13,94.00 L947.13,94.00 L947.13,94.00 L947.13,94.00 L945.81,92.44 L945.21,89.90 L943.79,88.46 L941.08,88.73 L938.54,88.79 L937.20,87.25 L935.93,85.60 L934.33,84.40 L932.73,83.20 L931.13,82.00 L931.13,82.00" fill="none" stroke="#397aa0" stroke-width="1.6" opacity="1" stroke-linejoin="round" marker-end="url(#causal-arrow-24)"/></g><g class="edge causal"><title>魚雷 · 遅延する介入案</title><defs><marker id="causal-arrow-25" viewBox="0 0 10 10" refX="10" refY="5" markerWidth="7" markerHeight="7" orient="-34.528302660136305" markerUnits="userSpaceOnUse"><path d="M0,1 L10,5 L0,9 Z" fill="#397aa0"/></marker></defs><path class="line" data-polarity="negative" d="M931.13,415.00 L931.13,415.00 L931.44,413.09 L932.36,411.06 L930.87,409.53 L929.66,407.94 L929.27,406.18 L928.90,404.42 L928.53,402.65 L928.16,400.89 L928.16,400.89 L928.16,400.89 L928.16,400.89 L929.47,399.27 L931.69,398.01 L932.38,396.14 L931.23,393.54 L930.01,390.90 L929.99,388.75 L931.69,387.28 L934.46,386.25 L936.97,385.11 L938.07,383.40 L937.51,381.03 L936.15,378.34 L935.36,375.88 L936.15,374.06 L938.49,372.84 L941.32,371.83 L943.27,370.47 L943.55,368.43 L942.46,365.85 L941.19,363.20 L941.08,361.01 L942.67,359.50 L945.41,358.45 L947.98,357.33 L949.18,355.67 L948.71,353.34 L947.36,350.65 L946.50,348.16 L947.18,346.29 L949.45,345.05 L952.29,344.04 L954.33,342.71 L954.71,340.72 L953.68,338.16 L952.38,335.50 L952.17,333.27 L953.66,331.72 L956.36,330.65 L958.98,329.56 L960.29,327.94 L959.91,325.64 L958.58,322.96 L957.65,320.45 L958.22,318.53 L960.41,317.26 L963.25,316.25 L965.38,314.95 L965.87,313.01 L964.90,310.47 L963.58,307.80 L963.26,305.53 L964.65,303.94 L967.31,302.86 L969.98,301.78 L971.39,300.20 L971.11,297.94 L969.80,295.27 L968.80,292.73 L969.27,290.77 L971.37,289.47 L974.21,288.46 L976.42,287.19 L977.02,285.29 L976.11,282.78 L974.77,280.10 L974.37,277.80 L975.65,276.16 L978.26,275.06 L980.97,274.00 L982.49,272.46 L982.30,270.24 L981.02,267.58 L979.96,265.02 L980.32,263.02 L982.33,261.68 L985.17,260.66 L987.45,259.43 L988.17,257.57 L987.33,255.09 L985.98,252.41 L985.48,250.06 L986.65,248.39 L989.21,247.26 L991.96,246.22 L993.58,244.72 L993.49,242.54 L992.24,239.90 L991.13,237.31 L991.38,235.26 L993.30,233.89 L996.13,232.87 L998.48,231.67 L999.31,229.85 L998.54,227.40 L997.18,224.71 L996.60,222.33 L997.66,220.61 L1000.16,219.47 L1002.94,218.43 L1004.66,216.98 L1004.67,214.84 L1003.46,212.21 L1002.30,209.60 L1002.44,207.51 L1004.27,206.10 L1007.08,205.08 L1009.51,203.90 L1010.44,202.13 L1009.76,199.71 L1008.39,197.02 L1007.72,194.61 L1008.67,192.84 L1011.11,191.67 L1013.91,190.65 L1015.73,189.23 L1015.85,187.13 L1014.68,184.52 L1013.48,181.89 L1013.51,179.76 L1015.25,178.31 L1018.03,177.28 L1020.52,176.13 L1021.57,174.40 L1020.97,172.02 L1019.60,169.33 L1018.85,166.88 L1019.70,165.08 L1022.06,163.88 L1024.89,162.86 L1026.80,161.48 L1027.02,159.42 L1025.90,156.83 L1024.66,154.19 L1024.59,152.02 L1026.23,150.53 L1028.98,149.48 L1031.53,148.36 L1032.68,146.67 L1032.17,144.32 L1030.81,141.64 L1029.99,139.16 L1030.72,137.31 L1033.02,136.08 L1035.86,135.07 L1037.86,133.73 L1038.19,131.71 L1037.12,129.14 L1035.85,126.49 L1035.68,124.28 L1037.22,122.75 L1039.94,121.69 L1042.54,120.58 L1043.80,118.94 L1043.37,116.63 L1042.03,113.95 L1041.13,111.44 L1041.76,109.55 L1043.98,108.29 L1046.82,107.28 L1048.91,105.97 L1049.35,104.00 L1048.34,101.45 L1047.68,99.05 L1048.86,97.37 L1050.10,95.72 L1050.84,93.87 L1051.58,92.02 L1052.32,90.17 L1052.32,90.17 L1052.32,90.17 L1052.32,90.17 L1054.17,89.69 L1055.23,88.04 L1056.31,86.44 L1058.19,85.99 L1059.74,85.07 L1061.23,84.04 L1062.71,83.02 L1064.20,82.00 L1064.20,82.00" fill="none" stroke="#397aa0" stroke-width="1.6" opacity="1" stroke-linejoin="round" marker-end="url(#causal-arrow-25)"/></g><g class="junction" data-time="46"><title>Task上の時刻 46</title><circle cx="931.1333333333333" cy="78" r="4" fill="white" stroke="#a75353" stroke-width="1.6"/></g><g class="junction" data-time="17"><title>Task上の時刻 17</title><circle cx="448.76666666666665" cy="352" r="4" fill="white" stroke="#236d78" stroke-width="1.6"/></g><g class="junction" data-time="30"><title>Task上の時刻 30</title><circle cx="665" cy="212" r="4" fill="white" stroke="#8061a8" stroke-width="1.6"/></g><g class="junction" data-time="54"><title>Task上の時刻 54</title><circle cx="1064.1999999999998" cy="78" r="4" fill="white" stroke="#a75353" stroke-width="1.6"/></g><g class="state" opacity="1"><title>敵UUV · 進出開始 · T+0</title><circle class="body" cx="166" cy="78" r="7" fill="#a75353" stroke="#a75353" stroke-width="1.6"/><text x="178" y="100" text-anchor="middle" font-size="11">進出開始</text></g><g class="state" opacity="1"><title>敵UUV · 進出終了 · T+12</title><circle class="body" cx="365.6" cy="78" r="7" fill="#a75353" stroke="#a75353" stroke-width="1.6"/><text x="365.6" y="100" text-anchor="middle" font-size="11">進出</text><text x="365.6" y="113" text-anchor="middle" font-size="11">終了</text></g><g class="state" opacity="1"><title>敵UUV · 任務開始 · T+14</title><circle class="body" cx="398.8666666666667" cy="78" r="7" fill="#a75353" stroke="#a75353" stroke-width="1.6"/><text x="416.8666666666667" y="100" text-anchor="middle" font-size="11">任務</text><text x="416.8666666666667" y="113" text-anchor="middle" font-size="11">開始</text></g><g class="state" opacity="1"><title>敵UUV · 任務終了 · T+34</title><circle class="body" cx="731.5333333333333" cy="78" r="7" fill="#a75353" stroke="#a75353" stroke-width="1.6"/><text x="731.5333333333333" y="100" text-anchor="middle" font-size="11">任務</text><text x="731.5333333333333" y="113" text-anchor="middle" font-size="11">終了</text></g><g class="state" opacity="1"><title>敵UUV · 離脱開始 · T+36</title><circle class="body" cx="764.8" cy="78" r="7" fill="#a75353" stroke="#a75353" stroke-width="1.6"/><text x="764.8" y="100" text-anchor="middle" font-size="11">離脱</text><text x="764.8" y="113" text-anchor="middle" font-size="11">開始</text></g><g class="state" opacity="1"><title>敵UUV · 離脱中 · T+44</title><circle class="body" cx="897.8666666666667" cy="78" r="7" fill="#a75353" stroke="#a75353" stroke-width="1.6"/><text x="897.8666666666667" y="100" text-anchor="middle" font-size="11">離脱中</text></g><g class="state" opacity="1"><title>敵UUV · 無力化 · T+46</title><circle class="body" cx="931.1333333333333" cy="142" r="7" fill="#a75353" stroke="#a75353" stroke-width="1.6"/><text x="913.1333333333333" y="164" text-anchor="middle" font-size="11">無力化</text></g><g class="state" opacity="1"><title>敵UUV · 離脱完了 · T+52</title><circle class="body" cx="1030.9333333333334" cy="78" r="7" fill="#a75353" stroke="#a75353" stroke-width="1.6"/><text x="1012.9333333333334" y="100" text-anchor="middle" font-size="11">離脱完了</text></g><g class="state" opacity="0.55"><title>管制 · 待機開始 · T+0</title><circle class="body" cx="166" cy="212" r="7" fill="#8061a8" stroke="#8061a8" stroke-width="1.6"/><text x="178" y="234" text-anchor="middle" font-size="11">待機開始</text></g><g class="state" opacity="1"><title>管制 · 識別開始 · T+18</title><circle class="body" cx="465.4" cy="212" r="7" fill="#8061a8" stroke="#8061a8" stroke-width="1.6"/><text x="435.4" y="234" text-anchor="middle" font-size="11">識別開始</text></g><g class="state" opacity="1"><title>管制 · 識別終了 · T+25</title><circle class="body" cx="581.8333333333333" cy="212" r="7" fill="#8061a8" stroke="#8061a8" stroke-width="1.6"/><text x="581.8333333333333" y="234" text-anchor="middle" font-size="11">識別</text><text x="581.8333333333333" y="247" text-anchor="middle" font-size="11">終了</text></g><g class="state" opacity="1"><title>管制 · 判断開始 · T+27</title><circle class="body" cx="615.0999999999999" cy="212" r="7" fill="#8061a8" stroke="#8061a8" stroke-width="1.6"/><text x="615.0999999999999" y="234" text-anchor="middle" font-size="11">判断</text><text x="615.0999999999999" y="247" text-anchor="middle" font-size="11">開始</text></g><g class="state" opacity="1"><title>管制 · 判断終了 · T+33</title><circle class="body" cx="714.9" cy="212" r="7" fill="#8061a8" stroke="#8061a8" stroke-width="1.6"/><text x="714.9" y="234" text-anchor="middle" font-size="11">判断終了</text></g><g class="state" opacity="0.55"><title>潜水艦 · 哨戒開始 · T+0</title><circle class="body" cx="166" cy="282" r="7" fill="#a56c24" stroke="#a56c24" stroke-width="1.6"/><text x="178" y="304" text-anchor="middle" font-size="11">哨戒開始</text></g><g class="state" opacity="0.55"><title>潜水艦 · 哨戒終了 · T+29</title><circle class="body" cx="648.3666666666667" cy="282" r="7" fill="#a56c24" stroke="#a56c24" stroke-width="1.6"/><text x="648.3666666666667" y="304" text-anchor="middle" font-size="11">哨戒</text><text x="648.3666666666667" y="317" text-anchor="middle" font-size="11">終了</text></g><g class="state" opacity="1"><title>潜水艦 · 接敵開始 · T+31</title><circle class="body" cx="681.6333333333333" cy="282" r="7" fill="#a56c24" stroke="#a56c24" stroke-width="1.6"/><text x="681.6333333333333" y="304" text-anchor="middle" font-size="11">接敵</text><text x="681.6333333333333" y="317" text-anchor="middle" font-size="11">開始</text></g><g class="state" opacity="1"><title>潜水艦 · 接敵完了 · T+38</title><circle class="body" cx="798.0666666666666" cy="282" r="7" fill="#a56c24" stroke="#a56c24" stroke-width="1.6"/><text x="798.0666666666666" y="304" text-anchor="middle" font-size="11">接敵</text><text x="798.0666666666666" y="317" text-anchor="middle" font-size="11">完了</text></g><g class="state" opacity="1"><title>潜水艦 · 攻撃開始 · T+40</title><circle class="body" cx="831.3333333333333" cy="282" r="7" fill="#a56c24" stroke="#a56c24" stroke-width="1.6"/><text x="849.3333333333333" y="304" text-anchor="middle" font-size="11">攻撃</text><text x="849.3333333333333" y="317" text-anchor="middle" font-size="11">開始</text></g><g class="state" opacity="1"><title>潜水艦 · 攻撃終了 · T+46</title><circle class="body" cx="931.1333333333333" cy="282" r="7" fill="#a56c24" stroke="#a56c24" stroke-width="1.6"/><text x="913.1333333333333" y="304" text-anchor="middle" font-size="11">攻撃終了</text></g><g class="state" opacity="0.55"><title>ソナー · 監視開始 · T+0</title><circle class="body" cx="166" cy="352" r="7" fill="#236d78" stroke="#236d78" stroke-width="1.6"/><text x="178" y="374" text-anchor="middle" font-size="11">監視開始</text></g><g class="state" opacity="1"><title>ソナー · 探知済 · T+14</title><circle class="body" cx="398.8666666666667" cy="352" r="7" fill="#236d78" stroke="#236d78" stroke-width="1.6"/><text x="398.8666666666667" y="374" text-anchor="middle" font-size="11">探知済</text></g><g class="state" opacity="1"><title>ソナー · 追尾終了 · T+48</title><circle class="body" cx="964.4" cy="352" r="7" fill="#236d78" stroke="#236d78" stroke-width="1.6"/><text x="982.4" y="374" text-anchor="middle" font-size="11">追尾終了</text></g><g class="state" opacity="0.55"><title>魚雷 · 待機開始 · T+0</title><circle class="body" cx="166" cy="422" r="7" fill="#397aa0" stroke="#397aa0" stroke-width="1.6"/><text x="178" y="444" text-anchor="middle" font-size="11">待機開始</text></g><g class="state" opacity="1"><title>魚雷 · 誘導開始 · T+40</title><circle class="body" cx="831.3333333333333" cy="422" r="7" fill="#397aa0" stroke="#397aa0" stroke-width="1.6"/><text x="831.3333333333333" y="444" text-anchor="middle" font-size="11">誘導開始</text></g><g class="state" opacity="1"><title>魚雷 · 誘導終了 · T+46</title><circle class="body" cx="931.1333333333333" cy="422" r="7" fill="#397aa0" stroke="#397aa0" stroke-width="1.6"/><text x="931.1333333333333" y="444" text-anchor="middle" font-size="11">誘導終了</text></g><g class="edge-label task-label"><title>進出</title><rect class="label-frame" x="249.8" y="69" width="32" height="18" rx="2" fill="white" fill-opacity="1" stroke="#a75353" stroke-width="1.2"/><text x="265.8" y="81" text-anchor="middle">進出</text></g><g class="edge-label task-label"><title>任務遂行</title><rect class="label-frame" x="538.2" y="69" width="54" height="18" rx="2" fill="white" fill-opacity="1" stroke="#a75353" stroke-width="1.2"/><text x="565.2" y="81" text-anchor="middle">任務遂行</text></g><g class="edge-label task-label"><title>離脱</title><rect class="label-frame" x="815.3333333333333" y="69" width="32" height="18" rx="2" fill="white" fill-opacity="1" stroke="#a75353" stroke-width="1.2"/><text x="831.3333333333333" y="81" text-anchor="middle">離脱</text></g><g class="edge-label task-label"><title>監視</title><rect class="label-frame" x="266.43333333333334" y="343" width="32" height="18" rx="2" fill="white" fill-opacity="1" stroke="#236d78" stroke-width="1.2"/><text x="282.43333333333334" y="355" text-anchor="middle">監視</text></g><g class="edge-label task-label"><title>探知・追尾</title><rect class="label-frame" x="649.1333333333333" y="343" width="65" height="18" rx="2" fill="white" fill-opacity="1" stroke="#236d78" stroke-width="1.2"/><text x="681.6333333333333" y="355" text-anchor="middle">探知・追尾</text></g><g class="edge-label task-label"><title>待機</title><rect class="label-frame" x="299.7" y="203" width="32" height="18" rx="2" fill="white" fill-opacity="1" stroke="#8061a8" stroke-width="1.2"/><text x="315.7" y="215" text-anchor="middle">待機</text></g><g class="edge-label task-label"><title>識別</title><rect class="label-frame" x="507.61666666666656" y="203" width="32" height="18" rx="2" fill="white" fill-opacity="1" stroke="#8061a8" stroke-width="1.2"/><text x="523.6166666666666" y="215" text-anchor="middle">識別</text></g><g class="edge-label task-label"><title>交戦判断</title><rect class="label-frame" x="674.4599999999999" y="203" width="21" height="18" rx="2" fill="white" fill-opacity="1" stroke="#8061a8" stroke-width="1.2"/><text x="684.9599999999999" y="215" text-anchor="middle">…</text></g><g class="edge-label task-label"><title>哨戒</title><rect class="label-frame" x="342.9466666666667" y="273" width="32" height="18" rx="2" fill="white" fill-opacity="1" stroke="#a56c24" stroke-width="1.2"/><text x="358.9466666666667" y="285" text-anchor="middle">哨戒</text></g><g class="edge-label task-label"><title>接敵</title><rect class="label-frame" x="723.8499999999999" y="273" width="32" height="18" rx="2" fill="white" fill-opacity="1" stroke="#a56c24" stroke-width="1.2"/><text x="739.8499999999999" y="285" text-anchor="middle">接敵</text></g><g class="edge-label task-label"><title>攻撃</title><rect class="label-frame" x="865.2333333333333" y="273" width="32" height="18" rx="2" fill="white" fill-opacity="1" stroke="#a56c24" stroke-width="1.2"/><text x="881.2333333333333" y="285" text-anchor="middle">攻撃</text></g><g class="edge-label task-label"><title>待機</title><rect class="label-frame" x="482.66666666666663" y="413" width="32" height="18" rx="2" fill="white" fill-opacity="1" stroke="#397aa0" stroke-width="1.2"/><text x="498.66666666666663" y="425" text-anchor="middle">待機</text></g><g class="edge-label task-label"><title>誘導</title><rect class="label-frame" x="865.2333333333333" y="413" width="32" height="18" rx="2" fill="white" fill-opacity="1" stroke="#397aa0" stroke-width="1.2"/><text x="881.2333333333333" y="425" text-anchor="middle">誘導</text></g><g class="edge-label task-label"><title>離脱成立</title><rect class="label-frame" x="950.7066666666667" y="69" width="54" height="18" rx="2" fill="white" fill-opacity="1" stroke="#a75353" stroke-width="1.2"/><text x="977.7066666666667" y="81" text-anchor="middle">離脱成立</text></g><g class="edge-label task-label"><title>阻止成功</title><rect class="label-frame" x="904.1333333333333" y="104.8" width="54" height="18" rx="2" fill="white" fill-opacity="1" stroke="#a75353" stroke-width="1.2"/><text x="931.1333333333333" y="116.8" text-anchor="middle">阻止成功</text></g><g class="edge-label causal-label"><title>発見</title><rect class="label-background" x="364.8666666666667" y="193" width="32" height="18" rx="3" fill="white" fill-opacity="0.94"/><path class="label-underline" d="M368.8666666666667,210 H392.8666666666667" fill="none" stroke="#a75353" stroke-width="1.5"/><text x="380.8666666666667" y="205" text-anchor="middle">発見</text></g><g class="edge-label causal-label"><title>探知情報</title><rect class="label-background" x="466.0833333333333" y="261.5" width="54" height="18" rx="3" fill="white" fill-opacity="0.94"/><path class="label-underline" d="M470.0833333333333,278.5 H516.0833333333333" fill="none" stroke="#236d78" stroke-width="1.5"/><text x="493.0833333333333" y="273.5" text-anchor="middle">探知情報</text></g><g class="edge-label causal-label"><title>接敵指示</title><rect class="label-background" x="681.3166666666666" y="236.4999999999998" width="54" height="18" rx="3" fill="white" fill-opacity="0.94"/><path class="label-underline" d="M685.3166666666666,253.4999999999998 H731.3166666666666" fill="none" stroke="#8061a8" stroke-width="1.5"/><text x="708.3166666666666" y="248.4999999999998" text-anchor="middle">接敵指示</text></g><g class="edge-label causal-label"><title>発射</title><rect class="label-background" x="797.3333333333333" y="330" width="32" height="18" rx="3" fill="white" fill-opacity="0.94"/><path class="label-underline" d="M801.3333333333333,347 H825.3333333333333" fill="none" stroke="#a56c24" stroke-width="1.5"/><text x="813.3333333333333" y="342" text-anchor="middle">発射</text></g><g class="edge-label causal-label"><title>命中・離脱阻止</title><path class="label-leader" d="M931.1333333333333,415 L931.1333333333333,448" stroke="#9aa8ad" stroke-width="0.7" fill="none"/><rect class="label-background" x="887.6333333333333" y="439" width="87" height="18" rx="3" fill="white" fill-opacity="0.94"/><path class="label-underline" d="M891.6333333333333,456 H970.6333333333333" fill="none" stroke="#397aa0" stroke-width="1.5"/><text x="931.1333333333333" y="451" text-anchor="middle">命中・離脱阻止</text></g><g class="edge-label causal-label"><title>遅延する介入案</title><rect class="label-background" x="1005.6666666666665" y="217.94073273946407" width="87" height="18" rx="3" fill="white" fill-opacity="0.94"/><path class="label-underline" d="M1009.6666666666665,234.94073273946407 H1088.6666666666665" fill="none" stroke="#397aa0" stroke-width="1.5"/><text x="1049.1666666666665" y="229.94073273946407" text-anchor="middle">遅延する介入案</text></g></g><g class="actor"><rect x="0" y="55" width="149" height="132" fill="#f6f9f9"/><path d="M2,62 V180" stroke="#a75353" stroke-width="3"/><text x="28" y="82" font-weight="600" font-size="11">敵UUV</text><title>敵UUV</title></g><g class="actor"><rect x="0" y="189" width="149" height="68" fill="#f6f9f9"/><path d="M2,196 V250" stroke="#8061a8" stroke-width="3"/><text x="28" y="216" font-weight="600" font-size="11">管制</text><title>管制</title></g><g class="actor"><rect x="0" y="259" width="149" height="68" fill="#f6f9f9"/><path d="M2,266 V320" stroke="#a56c24" stroke-width="3"/><text class="collapse-toggle" data-collapse="uuv" x="12" y="286" font-size="13">▾</text><text x="28" y="286" font-weight="600" font-size="11">潜水艦</text><title>潜水艦</title></g><g class="actor"><rect x="0" y="329" width="149" height="68" fill="#f6f9f9"/><path d="M2,336 V390" stroke="#236d78" stroke-width="3"/><text x="41" y="356" font-weight="600" font-size="11">ソナー</text><title>ソナー</title></g><g class="actor"><rect x="0" y="399" width="149" height="68" fill="#f6f9f9"/><path d="M2,406 V460" stroke="#397aa0" stroke-width="3"/><text x="41" y="426" font-weight="600" font-size="11">魚雷</text><title>魚雷</title></g></svg>
