<svg xmlns="http://www.w3.org/2000/svg" width="1200" height="732" viewBox="0 0 1200 732" role="img" aria-label="Technology / Gap — 介入経路の検討" font-family="Segoe UI, Noto Sans JP, sans-serif" font-size="11" fill="#243d44" data-view="technology"><title>Technology / Gap — 介入経路の検討</title><defs><marker id="arrow" viewBox="0 0 10 10" refX="10" refY="5" markerWidth="7" markerHeight="7" orient="auto-start-reverse" markerUnits="userSpaceOnUse"><path d="M0,1 L10,5 L0,9 Z" fill="context-stroke"/></marker><marker id="state-arrow" viewBox="0 0 10 10" refX="19" refY="5" markerWidth="7" markerHeight="7" orient="auto-start-reverse" markerUnits="userSpaceOnUse"><path d="M0,1 L10,5 L0,9 Z" fill="context-stroke"/></marker><clipPath id="time-clip"><rect x="152" y="32" width="1048" height="732"/></clipPath></defs><rect width="100%" height="100%" fill="white"/><rect x="0" y="54" width="1200" height="230" fill="#ffffff"/><path d="M0,284 H1200" stroke="#e7edef"/><rect x="0" y="284" width="1200" height="118" fill="#fafcfc"/><path d="M0,402 H1200" stroke="#e7edef"/><rect x="0" y="402" width="1200" height="94" fill="#ffffff"/><path d="M0,496 H1200" stroke="#e7edef"/><rect x="0" y="496" width="1200" height="118" fill="#fafcfc"/><path d="M0,614 H1200" stroke="#e7edef"/><rect x="0" y="614" width="1200" height="94" fill="#ffffff"/><path d="M0,708 H1200" stroke="#e7edef"/><path d="M166,32 V722" stroke="#eef2f3"/><text x="166" y="21" text-anchor="middle" font-size="10" fill="#77868c">0</text><path d="M332.3333333333333,32 V722" stroke="#eef2f3"/><text x="332.3333333333333" y="21" text-anchor="middle" font-size="10" fill="#77868c">10</text><path d="M498.66666666666663,32 V722" stroke="#eef2f3"/><text x="498.66666666666663" y="21" text-anchor="middle" font-size="10" fill="#77868c">20</text><path d="M665,32 V722" stroke="#eef2f3"/><text x="665" y="21" text-anchor="middle" font-size="10" fill="#77868c">30</text><path d="M831.3333333333333,32 V722" stroke="#eef2f3"/><text x="831.3333333333333" y="21" text-anchor="middle" font-size="10" fill="#77868c">40</text><path d="M997.6666666666666,32 V722" stroke="#eef2f3"/><text x="997.6666666666666" y="21" text-anchor="middle" font-size="10" fill="#77868c">50</text><path d="M1164,32 V722" stroke="#eef2f3"/><text x="1164" y="21" text-anchor="middle" font-size="10" fill="#77868c">60</text><text x="12" y="21" font-size="10" fill="#77868c">ACTOR / T+ (minutes)</text><g clip-path="url(#time-clip)"><g class="edge task"><title>敵UUV · 進出</title><path class="line" data-polarity="positive" d="M166.00,78.00 L365.60,78.00" fill="none" stroke="#a75353" stroke-width="1.6" opacity="1" stroke-linejoin="round" marker-end="url(#state-arrow)"/></g><g class="edge task"><title>敵UUV · 任務遂行</title><path class="line" data-polarity="positive" d="M398.87,78.00 L731.53,78.00" fill="none" stroke="#a75353" stroke-width="1.6" opacity="1" stroke-linejoin="round" marker-end="url(#state-arrow)"/></g><g class="edge task"><title>敵UUV · 離脱</title><path class="line" data-polarity="positive" d="M764.80,78.00 L897.87,78.00" fill="none" stroke="#a75353" stroke-width="1.6" opacity="1" stroke-linejoin="round" marker-end="url(#state-arrow)"/></g><g class="edge task"><title>ソナー · 監視</title><path class="line" data-polarity="positive" d="M166.00,520.00 L398.87,520.00" fill="none" stroke="#236d78" stroke-width="1.6" opacity="1" stroke-linejoin="round" marker-end="url(#state-arrow)"/></g><g class="edge task"><title>ソナー · 探知・追尾</title><path class="line" data-polarity="positive" d="M398.87,520.00 L964.40,520.00" fill="none" stroke="#236d78" stroke-width="1.6" opacity="1" stroke-linejoin="round" marker-end="url(#state-arrow)"/></g><g class="edge task"><title>管制 · 待機</title><path class="line" data-polarity="positive" d="M166.00,308.00 L465.40,308.00" fill="none" stroke="#8061a8" stroke-width="1.6" opacity="1" stroke-linejoin="round" marker-end="url(#state-arrow)"/></g><g class="edge task"><title>管制 · 識別</title><path class="line" data-polarity="positive" d="M465.40,308.00 L581.83,308.00" fill="none" stroke="#8061a8" stroke-width="1.6" opacity="1" stroke-linejoin="round" marker-end="url(#state-arrow)"/></g><g class="edge task"><title>管制 · 交戦判断</title><path class="line" data-polarity="positive" d="M615.10,308.00 L714.90,308.00" fill="none" stroke="#8061a8" stroke-width="1.6" opacity="1" stroke-linejoin="round" marker-end="url(#state-arrow)"/></g><g class="edge task"><title>潜水艦 · 哨戒</title><path class="line" data-polarity="positive" d="M166.00,426.00 L648.37,426.00" fill="none" stroke="#a56c24" stroke-width="1.6" opacity="1" stroke-linejoin="round" marker-end="url(#state-arrow)"/></g><g class="edge task"><title>潜水艦 · 接敵</title><path class="line" data-polarity="positive" d="M681.63,426.00 L798.07,426.00" fill="none" stroke="#a56c24" stroke-width="1.6" opacity="1" stroke-linejoin="round" marker-end="url(#state-arrow)"/></g><g class="edge task"><title>潜水艦 · 攻撃</title><path class="line" data-polarity="positive" d="M831.33,426.00 L931.13,426.00" fill="none" stroke="#a56c24" stroke-width="1.6" opacity="1" stroke-linejoin="round" marker-end="url(#state-arrow)"/></g><g class="edge task"><title>魚雷 · 待機</title><path class="line" data-polarity="positive" d="M166.00,638.00 L831.33,638.00" fill="none" stroke="#397aa0" stroke-width="1.6" opacity="1" stroke-linejoin="round" marker-end="url(#state-arrow)"/></g><g class="edge task"><title>魚雷 · 誘導</title><path class="line" data-polarity="positive" d="M831.33,638.00 L931.13,638.00" fill="none" stroke="#397aa0" stroke-width="1.6" opacity="1" stroke-linejoin="round" marker-end="url(#state-arrow)"/></g><g class="edge task"><title>敵UUV · 移行</title><path class="line" data-polarity="positive" d="M365.60,78.00 L398.87,78.00" fill="none" stroke="#a75353" stroke-width="1.6" opacity="1" stroke-linejoin="round" marker-end="url(#state-arrow)"/></g><g class="edge task"><title>敵UUV · 移行</title><path class="line" data-polarity="positive" d="M731.53,78.00 L764.80,78.00" fill="none" stroke="#a75353" stroke-width="1.6" opacity="1" stroke-linejoin="round" marker-end="url(#state-arrow)"/></g><g class="edge task"><title>敵UUV · 離脱成立</title><path class="line" data-polarity="positive" d="M897.87,78.00 L1030.93,78.00" fill="none" stroke="#a75353" stroke-width="1.6" opacity="1" stroke-linejoin="round" marker-end="url(#state-arrow)"/></g><g class="edge task"><title>管制 · 移行</title><path class="line" data-polarity="positive" d="M581.83,308.00 L615.10,308.00" fill="none" stroke="#8061a8" stroke-width="1.6" opacity="1" stroke-linejoin="round" marker-end="url(#state-arrow)"/></g><g class="edge task"><title>潜水艦 · 移行</title><path class="line" data-polarity="positive" d="M648.37,426.00 L681.63,426.00" fill="none" stroke="#a56c24" stroke-width="1.6" opacity="1" stroke-linejoin="round" marker-end="url(#state-arrow)"/></g><g class="edge task"><title>潜水艦 · 移行</title><path class="line" data-polarity="positive" d="M798.07,426.00 L831.33,426.00" fill="none" stroke="#a56c24" stroke-width="1.6" opacity="1" stroke-linejoin="round" marker-end="url(#state-arrow)"/></g><g class="edge outcome"><title>敵UUV · 阻止成功</title><path class="line" data-polarity="positive" d="M931.13,82.00 L931.13,183.00" fill="none" stroke="#a75353" stroke-width="1.6" opacity="1" stroke-linejoin="round" marker-end="url(#arrow)"/></g><g class="edge causal"><title>敵UUV · 発見</title><defs><marker id="causal-arrow-20" viewBox="0 0 10 10" refX="10" refY="5" markerWidth="7" markerHeight="7" orient="90" markerUnits="userSpaceOnUse"><path d="M0,1 L10,5 L0,9 Z" fill="#a75353"/></marker></defs><path class="line" data-polarity="positive" d="M398.87,85.00 L398.87,90.00 L396.07,90.00 L396.07,92.50 L401.67,92.50 L401.67,100.00 L396.07,100.00 L396.07,107.50 L401.67,107.50 L401.67,115.00 L396.07,115.00 L396.07,122.50 L401.67,122.50 L401.67,130.00 L396.07,130.00 L396.07,137.50 L401.67,137.50 L401.67,145.00 L396.07,145.00 L396.07,152.50 L401.67,152.50 L401.67,160.00 L396.07,160.00 L396.07,167.50 L401.67,167.50 L401.67,175.00 L396.07,175.00 L396.07,182.50 L401.67,182.50 L401.67,190.00 L396.07,190.00 L396.07,197.50 L401.67,197.50 L401.67,205.00 L396.07,205.00 L396.07,212.50 L401.67,212.50 L401.67,220.00 L396.07,220.00 L396.07,227.50 L401.67,227.50 L401.67,235.00 L396.07,235.00 L396.07,242.50 L401.67,242.50 L401.67,250.00 L396.07,250.00 L396.07,257.50 L401.67,257.50 L401.67,265.00 L396.07,265.00 L396.07,272.50 L401.67,272.50 L401.67,280.00 L396.07,280.00 L396.07,287.50 L401.67,287.50 L401.67,295.00 L396.07,295.00 L396.07,302.50 L401.67,302.50 L401.67,310.00 L396.07,310.00 L396.07,317.50 L401.67,317.50 L401.67,325.00 L396.07,325.00 L396.07,332.50 L401.67,332.50 L401.67,340.00 L396.07,340.00 L396.07,347.50 L401.67,347.50 L401.67,355.00 L396.07,355.00 L396.07,362.50 L401.67,362.50 L401.67,370.00 L396.07,370.00 L396.07,377.50 L401.67,377.50 L401.67,385.00 L396.07,385.00 L396.07,392.50 L401.67,392.50 L401.67,400.00 L396.07,400.00 L396.07,407.50 L401.67,407.50 L401.67,415.00 L396.07,415.00 L396.07,422.50 L401.67,422.50 L401.67,430.00 L396.07,430.00 L396.07,437.50 L401.67,437.50 L401.67,445.00 L396.07,445.00 L396.07,452.50 L401.67,452.50 L401.67,460.00 L396.07,460.00 L396.07,467.50 L401.67,467.50 L401.67,475.00 L396.07,475.00 L396.07,482.50 L401.67,482.50 L401.67,490.00 L396.07,490.00 L396.07,497.50 L401.67,497.50 L401.67,505.00 L396.07,505.00 L396.07,506.00 L398.87,506.00 L398.87,513.00" fill="none" stroke="#a75353" stroke-width="1.6" opacity="1" stroke-linejoin="miter" marker-end="url(#causal-arrow-20)"/></g><g class="edge causal"><title>ソナー · 探知情報</title><defs><marker id="causal-arrow-21" viewBox="0 0 10 10" refX="10" refY="5" markerWidth="7" markerHeight="7" orient="-85.26938679543198" markerUnits="userSpaceOnUse"><path d="M0,1 L10,5 L0,9 Z" fill="#236d78"/></marker></defs><path class="line" data-polarity="positive" d="M448.77,516.00 L449.18,511.02 L451.97,511.25 L452.18,508.76 L446.59,508.29 L447.21,500.82 L452.79,501.28 L453.41,493.81 L447.83,493.35 L448.45,485.87 L454.03,486.33 L454.65,478.86 L449.07,478.40 L449.69,470.92 L455.27,471.38 L455.89,463.91 L450.31,463.45 L450.92,455.97 L456.51,456.44 L457.12,448.96 L451.54,448.50 L452.16,441.02 L457.74,441.49 L458.36,434.01 L452.78,433.55 L453.40,426.08 L458.98,426.54 L459.60,419.06 L454.02,418.60 L454.64,411.13 L460.22,411.59 L460.84,404.11 L455.25,403.65 L455.87,396.18 L461.45,396.64 L462.07,389.17 L456.49,388.70 L457.11,381.23 L462.69,381.69 L463.31,374.22 L457.73,373.75 L458.35,366.28 L463.93,366.74 L464.55,359.27 L458.97,358.81 L459.58,351.33 L465.16,351.79 L465.78,344.32 L460.20,343.86 L460.82,336.38 L466.40,336.84 L467.02,329.37 L461.44,328.91 L462.03,321.75 L464.82,321.98 L465.40,315.00" fill="none" stroke="#236d78" stroke-width="1.6" opacity="1" stroke-linejoin="miter" marker-end="url(#causal-arrow-21)"/></g><g class="edge causal"><title>管制 · 接敵指示</title><defs><marker id="causal-arrow-22" viewBox="0 0 10 10" refX="10" refY="5" markerWidth="7" markerHeight="7" orient="81.16399468181203" markerUnits="userSpaceOnUse"><path d="M0,1 L10,5 L0,9 Z" fill="#8061a8"/></marker></defs><path class="line" data-polarity="positive" d="M665.00,312.00 L665.77,316.94 L663.00,317.37 L663.39,319.84 L668.92,318.98 L670.07,326.39 L664.54,327.25 L665.69,334.66 L671.22,333.80 L672.37,341.21 L666.84,342.07 L667.99,349.49 L673.53,348.62 L674.68,356.04 L669.15,356.90 L670.30,364.31 L675.83,363.45 L676.98,370.86 L671.45,371.72 L672.60,379.13 L678.14,378.27 L679.29,385.68 L673.75,386.54 L674.91,393.95 L680.44,393.09 L681.59,400.50 L676.06,401.36 L677.21,408.77 L682.74,407.91 L683.32,411.65 L680.56,412.08 L681.63,419.00" fill="none" stroke="#8061a8" stroke-width="1.6" opacity="1" stroke-linejoin="miter" marker-end="url(#causal-arrow-22)"/></g><g class="edge causal"><title>潜水艦 · 発射</title><defs><marker id="causal-arrow-23" viewBox="0 0 10 10" refX="10" refY="5" markerWidth="7" markerHeight="7" orient="90" markerUnits="userSpaceOnUse"><path d="M0,1 L10,5 L0,9 Z" fill="#a56c24"/></marker></defs><path class="line" data-polarity="positive" d="M831.33,433.00 L831.33,438.00 L828.53,438.00 L828.53,440.50 L834.13,440.50 L834.13,448.00 L828.53,448.00 L828.53,455.50 L834.13,455.50 L834.13,463.00 L828.53,463.00 L828.53,470.50 L834.13,470.50 L834.13,478.00 L828.53,478.00 L828.53,485.50 L834.13,485.50 L834.13,493.00 L828.53,493.00 L828.53,500.50 L834.13,500.50 L834.13,508.00 L828.53,508.00 L828.53,515.50 L834.13,515.50 L834.13,523.00 L828.53,523.00 L828.53,530.50 L834.13,530.50 L834.13,538.00 L828.53,538.00 L828.53,545.50 L834.13,545.50 L834.13,553.00 L828.53,553.00 L828.53,560.50 L834.13,560.50 L834.13,568.00 L828.53,568.00 L828.53,575.50 L834.13,575.50 L834.13,583.00 L828.53,583.00 L828.53,590.50 L834.13,590.50 L834.13,598.00 L828.53,598.00 L828.53,605.50 L834.13,605.50 L834.13,613.00 L828.53,613.00 L828.53,620.50 L834.13,620.50 L834.13,624.00 L831.33,624.00 L831.33,631.00" fill="none" stroke="#a56c24" stroke-width="1.6" opacity="1" stroke-linejoin="miter" marker-end="url(#causal-arrow-23)"/></g><g class="edge causal"><title>魚雷 · 命中・離脱阻止</title><defs><marker id="causal-arrow-24" viewBox="0 0 10 10" refX="10" refY="5" markerWidth="7" markerHeight="7" orient="-143.13010235415598" markerUnits="userSpaceOnUse"><path d="M0,1 L10,5 L0,9 Z" fill="#397aa0"/></marker></defs><path class="line" data-polarity="negative" d="M931.13,631.00 L931.13,631.00 L933.23,630.47 L935.67,630.38 L936.92,628.72 L937.18,625.73 L938.26,623.84 L940.41,623.37 L942.33,622.60 L943.93,621.40 L945.53,620.20 L947.13,619.00 L947.13,619.00 L947.13,619.00 L947.13,619.00 L947.37,617.00 L945.82,615.01 L944.35,613.01 L945.04,611.02 L947.11,609.02 L949.20,607.02 L949.92,605.03 L948.81,603.03 L946.59,601.03 L944.73,599.04 L944.46,597.04 L945.95,595.05 L948.22,593.05 L949.78,591.05 L949.59,589.06 L947.79,587.06 L945.55,585.06 L944.36,583.07 L945.00,581.07 L947.04,579.08 L949.15,577.08 L949.93,575.08 L948.86,573.09 L946.66,571.09 L944.77,569.10 L944.44,567.10 L945.89,565.10 L948.16,563.11 L949.75,561.11 L949.62,559.11 L947.85,557.12 L945.61,555.12 L944.37,553.13 L944.95,551.13 L946.98,549.13 L949.10,547.14 L949.93,545.14 L948.91,543.14 L946.72,541.15 L944.80,539.15 L944.42,537.16 L945.83,535.16 L948.09,533.16 L949.73,531.17 L949.65,529.17 L947.91,527.17 L945.66,525.18 L944.38,523.18 L944.91,521.19 L946.91,519.19 L949.06,517.19 L949.93,515.20 L948.96,513.20 L946.79,511.21 L944.84,509.21 L944.40,507.21 L945.77,505.22 L948.03,503.22 L949.70,501.22 L949.68,499.23 L947.98,497.23 L945.72,495.24 L944.39,493.24 L944.87,491.24 L946.84,489.25 L949.01,487.25 L949.93,485.25 L949.01,483.26 L946.86,481.26 L944.88,479.27 L944.39,477.27 L945.71,475.27 L947.97,473.28 L949.68,471.28 L949.71,469.29 L948.04,467.29 L945.78,465.29 L944.41,463.30 L944.83,461.30 L946.78,459.30 L948.96,457.31 L949.93,455.31 L949.06,453.32 L946.92,451.32 L944.92,449.32 L944.38,447.33 L945.65,445.33 L947.90,443.33 L949.65,441.34 L949.73,439.34 L948.10,437.35 L945.84,435.35 L944.42,433.35 L944.80,431.36 L946.71,429.36 L948.90,427.37 L949.93,425.37 L949.11,423.37 L946.99,421.38 L944.96,419.38 L944.37,417.38 L945.60,415.39 L947.84,413.39 L949.62,411.40 L949.76,409.40 L948.17,407.40 L945.90,405.41 L944.44,403.41 L944.76,401.41 L946.65,399.42 L948.85,397.42 L949.93,395.43 L949.16,393.43 L947.06,391.43 L945.00,389.44 L944.36,387.44 L945.54,385.44 L947.77,383.45 L949.59,381.45 L949.78,379.46 L948.23,377.46 L945.96,375.46 L944.46,373.47 L944.73,371.47 L946.58,369.48 L948.80,367.48 L949.92,365.48 L949.20,363.49 L947.12,361.49 L945.05,359.49 L944.35,357.50 L945.49,355.50 L947.71,353.51 L949.55,351.51 L949.80,349.51 L948.29,347.52 L946.02,345.52 L944.48,343.52 L944.69,341.53 L946.51,339.53 L948.74,337.54 L949.91,335.54 L949.25,333.54 L947.19,331.55 L945.09,329.55 L944.34,327.56 L945.43,325.56 L947.64,323.56 L949.52,321.57 L949.82,319.57 L948.35,317.57 L946.08,315.58 L944.50,313.58 L944.66,311.59 L946.45,309.59 L948.69,307.59 L949.90,305.60 L949.29,303.60 L947.26,301.60 L945.14,299.61 L944.34,297.61 L945.38,295.62 L947.58,293.62 L949.48,291.62 L949.84,289.63 L948.41,287.63 L946.14,285.63 L944.53,283.64 L944.63,281.64 L946.38,279.65 L948.63,277.65 L949.89,275.65 L949.33,273.66 L947.32,271.66 L945.19,269.67 L944.33,267.67 L945.33,265.67 L947.51,263.68 L949.45,261.68 L949.86,259.68 L948.47,257.69 L946.20,255.69 L944.55,253.70 L944.60,251.70 L946.32,249.70 L948.58,247.71 L949.88,245.71 L949.37,243.71 L947.39,241.72 L945.24,239.72 L944.33,237.73 L945.28,235.73 L947.44,233.73 L949.41,231.74 L949.87,229.74 L948.53,227.75 L946.27,225.75 L944.58,223.75 L944.57,221.76 L946.26,219.76 L948.52,217.76 L949.87,215.77 L949.41,213.77 L947.46,211.78 L945.29,209.78 L944.33,207.78 L945.23,205.79 L947.38,203.79 L949.37,201.79 L949.88,199.80 L948.59,197.80 L946.33,195.81 L944.60,193.81 L944.55,191.81 L946.19,189.82 L948.46,187.82 L949.85,185.83 L949.45,183.83 L947.52,181.83 L945.34,179.84 L944.34,177.84 L945.18,175.84 L947.31,173.85 L949.33,171.85 L949.90,169.86 L948.64,167.86 L946.40,165.86 L944.63,163.87 L944.52,161.87 L946.13,159.87 L948.40,157.88 L949.84,155.88 L949.49,153.89 L947.59,151.89 L945.39,149.89 L944.34,147.90 L945.13,145.90 L947.24,143.90 L949.28,141.91 L949.91,139.91 L948.70,137.92 L946.46,135.92 L944.67,133.92 L944.50,131.93 L946.07,129.93 L948.34,127.94 L949.82,125.94 L949.52,123.94 L947.65,121.95 L945.44,119.95 L944.34,117.95 L945.09,115.96 L947.18,113.96 L949.24,111.97 L949.91,109.97 L948.75,107.97 L946.53,105.98 L945.68,103.98 L946.61,101.98 L947.13,99.99 L947.13,97.99 L947.13,96.00 L947.13,94.00 L947.13,94.00 L947.13,94.00 L947.13,94.00 L945.67,92.61 L943.14,92.65 L940.66,92.63 L939.48,90.86 L939.13,88.00 L937.78,86.47 L935.93,85.60 L934.33,84.40 L932.73,83.20 L931.13,82.00 L931.13,82.00" fill="none" stroke="#397aa0" stroke-width="1.6" opacity="1" stroke-linejoin="round" marker-end="url(#causal-arrow-24)"/></g><g class="edge causal"><title>魚雷 · 遅延する介入案</title><defs><marker id="causal-arrow-25" viewBox="0 0 10 10" refX="10" refY="5" markerWidth="7" markerHeight="7" orient="-42.68532723662534" markerUnits="userSpaceOnUse"><path d="M0,1 L10,5 L0,9 Z" fill="#397aa0"/></marker></defs><path class="line" data-polarity="negative" d="M931.13,631.00 L931.13,631.00 L931.16,629.07 L931.79,626.92 L930.09,625.62 L928.67,624.22 L928.04,622.53 L927.42,620.84 L926.80,619.15 L926.19,617.45 L926.19,617.45 L926.19,617.45 L926.19,617.45 L927.26,615.66 L929.28,614.10 L929.69,612.14 L928.17,609.72 L926.59,607.28 L926.29,605.16 L927.78,603.46 L930.39,602.04 L932.71,600.55 L933.51,598.69 L932.59,596.41 L930.85,593.94 L929.76,591.62 L930.34,589.71 L932.52,588.18 L935.17,586.77 L936.86,585.13 L936.78,583.05 L935.29,580.64 L933.69,578.20 L933.34,576.06 L934.78,574.35 L937.37,572.93 L939.72,571.44 L940.58,569.60 L939.70,567.33 L937.97,564.86 L936.84,562.53 L937.36,560.60 L939.50,559.07 L942.17,557.66 L943.90,556.03 L943.88,553.97 L942.42,551.56 L940.79,549.11 L940.39,546.96 L941.78,545.25 L944.36,543.82 L946.73,542.34 L947.65,540.51 L946.82,538.25 L945.09,535.78 L943.92,533.44 L944.38,531.50 L946.49,529.96 L949.16,528.55 L950.94,526.93 L950.97,524.88 L949.54,522.48 L947.90,520.03 L947.44,517.87 L948.78,516.14 L951.34,514.70 L953.74,513.23 L954.72,511.41 L953.93,509.17 L952.21,506.70 L951.00,504.35 L951.41,502.40 L953.48,500.84 L956.15,499.44 L957.98,497.83 L958.06,495.80 L956.66,493.40 L955.00,490.95 L954.50,488.77 L955.78,487.03 L958.32,485.59 L960.75,484.13 L961.78,482.32 L961.04,480.09 L959.33,477.62 L958.08,475.26 L958.43,473.29 L960.46,471.73 L963.14,470.33 L965.01,468.73 L965.15,466.71 L963.78,464.32 L962.11,461.86 L961.55,459.67 L962.78,457.92 L965.30,456.48 L967.76,455.02 L968.84,453.23 L968.15,451.01 L966.45,448.54 L965.17,446.17 L965.46,444.19 L967.45,442.62 L970.13,441.22 L972.04,439.63 L972.24,437.62 L970.90,435.24 L969.22,432.78 L968.61,430.58 L969.79,428.81 L972.29,427.36 L974.77,425.91 L975.91,424.13 L975.26,421.92 L973.57,419.46 L972.25,417.09 L972.49,415.09 L974.44,413.51 L977.12,412.10 L979.08,410.52 L979.33,408.53 L978.02,406.16 L976.33,403.70 L975.67,401.48 L976.80,399.70 L979.27,398.25 L981.77,396.80 L982.96,395.04 L982.37,392.84 L980.69,390.38 L979.34,388.00 L979.53,385.99 L981.43,384.40 L984.11,382.99 L986.11,381.42 L986.42,379.44 L985.14,377.08 L983.44,374.62 L982.73,372.39 L983.80,370.60 L986.25,369.14 L988.78,367.69 L990.02,365.94 L989.48,363.76 L987.81,361.30 L986.43,358.91 L986.56,356.89 L988.42,355.29 L991.09,353.88 L993.13,352.32 L993.50,350.36 L992.26,348.00 L990.55,345.53 L989.79,343.30 L990.81,341.49 L993.24,340.02 L995.78,338.59 L997.08,336.85 L996.58,334.67 L994.93,332.22 L993.52,329.82 L993.59,327.79 L995.41,326.17 L998.08,324.77 L1000.16,323.22 L1000.58,321.27 L999.38,318.92 L997.66,316.45 L996.86,314.20 L997.82,312.38 L1000.22,310.91 L1002.78,309.48 L1004.13,307.75 L1003.69,305.59 L1002.05,303.14 L1000.61,300.74 L1000.63,298.69 L1002.40,297.06 L1005.07,295.66 L1007.18,294.11 L1007.66,292.18 L1006.50,289.84 L1004.77,287.37 L1003.93,285.11 L1004.83,283.28 L1007.20,281.80 L1009.78,280.37 L1011.18,278.65 L1010.79,276.51 L1009.17,274.06 L1007.71,271.65 L1007.67,269.59 L1009.39,267.95 L1012.05,266.54 L1014.21,265.01 L1014.74,263.09 L1013.62,260.76 L1011.89,258.29 L1011.00,256.02 L1011.85,254.17 L1014.18,252.68 L1016.78,251.26 L1018.23,249.56 L1017.89,247.42 L1016.30,244.98 L1014.80,242.56 L1014.71,240.49 L1016.39,238.84 L1019.04,237.43 L1021.23,235.91 L1021.82,234.00 L1020.74,231.68 L1019.00,229.21 L1018.07,226.93 L1018.86,225.06 L1021.17,223.57 L1023.78,222.15 L1025.28,220.46 L1025.00,218.34 L1023.42,215.90 L1021.90,213.48 L1021.75,211.39 L1023.38,209.73 L1026.02,208.32 L1028.25,206.80 L1028.90,204.91 L1027.85,202.60 L1026.11,200.12 L1025.14,197.83 L1025.88,195.96 L1028.15,194.46 L1030.78,193.04 L1032.33,191.36 L1032.10,189.25 L1030.54,186.82 L1029.00,184.39 L1028.80,182.29 L1030.38,180.62 L1033.01,179.20 L1035.27,177.70 L1035.97,175.82 L1034.97,173.52 L1033.23,171.04 L1032.21,168.74 L1032.89,166.85 L1035.14,165.34 L1037.77,163.93 L1039.37,162.26 L1039.19,160.17 L1037.66,157.74 L1036.10,155.31 L1035.84,153.19 L1037.37,151.51 L1039.99,150.09 L1042.28,148.59 L1043.04,146.72 L1042.08,144.44 L1040.35,141.96 L1039.29,139.65 L1039.91,137.75 L1042.12,136.23 L1044.77,134.82 L1046.42,133.17 L1046.29,131.08 L1044.78,128.66 L1043.20,126.22 L1042.89,124.10 L1044.37,122.40 L1046.98,120.98 L1049.30,119.49 L1050.12,117.63 L1049.20,115.36 L1047.46,112.88 L1046.36,110.56 L1046.93,108.65 L1049.11,107.12 L1051.76,105.71 L1053.45,104.06 L1052.52,101.79 L1051.75,99.55 L1052.19,97.60 L1052.66,95.66 L1053.13,93.72 L1053.60,91.78 L1053.60,91.78 L1053.60,91.78 L1053.60,91.78 L1055.45,91.13 L1057.61,90.81 L1058.09,88.67 L1058.90,86.89 L1060.22,85.67 L1061.55,84.44 L1062.87,83.22 L1064.20,82.00 L1064.20,82.00" fill="none" stroke="#397aa0" stroke-width="1.6" opacity="1" stroke-linejoin="round" marker-end="url(#causal-arrow-25)"/></g><g class="junction" data-time="46"><title>Task上の時刻 46</title><circle cx="931.1333333333333" cy="78" r="4" fill="white" stroke="#a75353" stroke-width="1.6"/></g><g class="junction" data-time="17"><title>Task上の時刻 17</title><circle cx="448.76666666666665" cy="520" r="4" fill="white" stroke="#236d78" stroke-width="1.6"/></g><g class="junction" data-time="30"><title>Task上の時刻 30</title><circle cx="665" cy="308" r="4" fill="white" stroke="#8061a8" stroke-width="1.6"/></g><g class="junction" data-time="54"><title>Task上の時刻 54</title><circle cx="1064.1999999999998" cy="78" r="4" fill="white" stroke="#a75353" stroke-width="1.6"/></g><g class="state" opacity="1"><title>敵UUV · 進出開始 · T+0</title><circle class="body" cx="166" cy="78" r="7" fill="#a75353" stroke="#a75353" stroke-width="1.6"/><text x="178" y="100" text-anchor="middle" font-size="11">進出開始</text></g><g class="state" opacity="1"><title>敵UUV · 進出終了 · T+12</title><circle class="body" cx="365.6" cy="78" r="7" fill="#a75353" stroke="#a75353" stroke-width="1.6"/><text x="365.6" y="100" text-anchor="middle" font-size="11">進出</text><text x="365.6" y="113" text-anchor="middle" font-size="11">終了</text></g><g class="state" opacity="1"><title>敵UUV · 任務開始 · T+14</title><circle class="body" cx="398.8666666666667" cy="78" r="7" fill="#a75353" stroke="#a75353" stroke-width="1.6"/><text x="416.8666666666667" y="100" text-anchor="middle" font-size="11">任務</text><text x="416.8666666666667" y="113" text-anchor="middle" font-size="11">開始</text></g><g class="state" opacity="1"><title>敵UUV · 任務終了 · T+34</title><circle class="body" cx="731.5333333333333" cy="78" r="7" fill="#a75353" stroke="#a75353" stroke-width="1.6"/><text x="731.5333333333333" y="100" text-anchor="middle" font-size="11">任務</text><text x="731.5333333333333" y="113" text-anchor="middle" font-size="11">終了</text></g><g class="state" opacity="1"><title>敵UUV · 離脱開始 · T+36</title><circle class="body" cx="764.8" cy="78" r="7" fill="#a75353" stroke="#a75353" stroke-width="1.6"/><text x="764.8" y="100" text-anchor="middle" font-size="11">離脱</text><text x="764.8" y="113" text-anchor="middle" font-size="11">開始</text></g><g class="state" opacity="1"><title>敵UUV · 離脱中 · T+44</title><circle class="body" cx="897.8666666666667" cy="78" r="7" fill="#a75353" stroke="#a75353" stroke-width="1.6"/><text x="897.8666666666667" y="100" text-anchor="middle" font-size="11">離脱中</text></g><g class="state" opacity="1"><title>敵UUV · 無力化 · T+46</title><circle class="body" cx="931.1333333333333" cy="190" r="7" fill="#a75353" stroke="#a75353" stroke-width="1.6"/><text x="913.1333333333333" y="212" text-anchor="middle" font-size="11">無力化</text></g><g class="state" opacity="1"><title>敵UUV · 離脱完了 · T+52</title><circle class="body" cx="1030.9333333333334" cy="78" r="7" fill="#a75353" stroke="#a75353" stroke-width="1.6"/><text x="1012.9333333333334" y="100" text-anchor="middle" font-size="11">離脱完了</text></g><g class="state" opacity="0.55"><title>管制 · 待機開始 · T+0</title><circle class="body" cx="166" cy="308" r="7" fill="#8061a8" stroke="#8061a8" stroke-width="1.6"/><text x="178" y="330" text-anchor="middle" font-size="11">待機開始</text></g><g class="state" opacity="1"><title>管制 · 識別開始 · T+18</title><circle class="body" cx="465.4" cy="308" r="7" fill="#8061a8" stroke="#8061a8" stroke-width="1.6"/><text x="435.4" y="330" text-anchor="middle" font-size="11">識別開始</text></g><g class="state" opacity="1"><title>管制 · 識別終了 · T+25</title><circle class="body" cx="581.8333333333333" cy="308" r="7" fill="#8061a8" stroke="#8061a8" stroke-width="1.6"/><text x="581.8333333333333" y="330" text-anchor="middle" font-size="11">識別</text><text x="581.8333333333333" y="343" text-anchor="middle" font-size="11">終了</text></g><g class="state" opacity="1"><title>管制 · 判断開始 · T+27</title><circle class="body" cx="615.0999999999999" cy="308" r="7" fill="#8061a8" stroke="#8061a8" stroke-width="1.6"/><text x="615.0999999999999" y="330" text-anchor="middle" font-size="11">判断</text><text x="615.0999999999999" y="343" text-anchor="middle" font-size="11">開始</text></g><g class="state" opacity="1"><title>管制 · 判断終了 · T+33</title><circle class="body" cx="714.9" cy="308" r="7" fill="#8061a8" stroke="#8061a8" stroke-width="1.6"/><text x="714.9" y="330" text-anchor="middle" font-size="11">判断終了</text></g><g class="state" opacity="0.55"><title>潜水艦 · 哨戒開始 · T+0</title><circle class="body" cx="166" cy="426" r="7" fill="#a56c24" stroke="#a56c24" stroke-width="1.6"/><text x="178" y="448" text-anchor="middle" font-size="11">哨戒開始</text></g><g class="state" opacity="0.55"><title>潜水艦 · 哨戒終了 · T+29</title><circle class="body" cx="648.3666666666667" cy="426" r="7" fill="#a56c24" stroke="#a56c24" stroke-width="1.6"/><text x="648.3666666666667" y="448" text-anchor="middle" font-size="11">哨戒</text><text x="648.3666666666667" y="461" text-anchor="middle" font-size="11">終了</text></g><g class="state" opacity="1"><title>潜水艦 · 接敵開始 · T+31</title><circle class="body" cx="681.6333333333333" cy="426" r="7" fill="#a56c24" stroke="#a56c24" stroke-width="1.6"/><text x="681.6333333333333" y="448" text-anchor="middle" font-size="11">接敵</text><text x="681.6333333333333" y="461" text-anchor="middle" font-size="11">開始</text></g><g class="state" opacity="1"><title>潜水艦 · 接敵完了 · T+38</title><circle class="body" cx="798.0666666666666" cy="426" r="7" fill="#a56c24" stroke="#a56c24" stroke-width="1.6"/><text x="798.0666666666666" y="448" text-anchor="middle" font-size="11">接敵</text><text x="798.0666666666666" y="461" text-anchor="middle" font-size="11">完了</text></g><g class="state" opacity="1"><title>潜水艦 · 攻撃開始 · T+40</title><circle class="body" cx="831.3333333333333" cy="426" r="7" fill="#a56c24" stroke="#a56c24" stroke-width="1.6"/><text x="849.3333333333333" y="448" text-anchor="middle" font-size="11">攻撃</text><text x="849.3333333333333" y="461" text-anchor="middle" font-size="11">開始</text></g><g class="state" opacity="1"><title>潜水艦 · 攻撃終了 · T+46</title><circle class="body" cx="931.1333333333333" cy="426" r="7" fill="#a56c24" stroke="#a56c24" stroke-width="1.6"/><text x="913.1333333333333" y="448" text-anchor="middle" font-size="11">攻撃終了</text></g><g class="state" opacity="0.55"><title>ソナー · 監視開始 · T+0</title><circle class="body" cx="166" cy="520" r="7" fill="#236d78" stroke="#236d78" stroke-width="1.6"/><text x="178" y="542" text-anchor="middle" font-size="11">監視開始</text></g><g class="state" opacity="1"><title>ソナー · 探知済 · T+14</title><circle class="body" cx="398.8666666666667" cy="520" r="7" fill="#236d78" stroke="#236d78" stroke-width="1.6"/><text x="398.8666666666667" y="542" text-anchor="middle" font-size="11">探知済</text></g><g class="state" opacity="1"><title>ソナー · 追尾終了 · T+48</title><circle class="body" cx="964.4" cy="520" r="7" fill="#236d78" stroke="#236d78" stroke-width="1.6"/><text x="982.4" y="542" text-anchor="middle" font-size="11">追尾終了</text></g><g class="state" opacity="0.55"><title>魚雷 · 待機開始 · T+0</title><circle class="body" cx="166" cy="638" r="7" fill="#397aa0" stroke="#397aa0" stroke-width="1.6"/><text x="178" y="660" text-anchor="middle" font-size="11">待機開始</text></g><g class="state" opacity="1"><title>魚雷 · 誘導開始 · T+40</title><circle class="body" cx="831.3333333333333" cy="638" r="7" fill="#397aa0" stroke="#397aa0" stroke-width="1.6"/><text x="831.3333333333333" y="660" text-anchor="middle" font-size="11">誘導開始</text></g><g class="state" opacity="1"><title>魚雷 · 誘導終了 · T+46</title><circle class="body" cx="931.1333333333333" cy="638" r="7" fill="#397aa0" stroke="#397aa0" stroke-width="1.6"/><text x="931.1333333333333" y="660" text-anchor="middle" font-size="11">誘導終了</text></g><g class="edge-label task-label"><title>進出</title><rect class="label-frame" x="249.8" y="69" width="32" height="18" rx="2" fill="white" fill-opacity="1" stroke="#a75353" stroke-width="1.2"/><text x="265.8" y="81" text-anchor="middle">進出</text></g><g class="edge-label task-label"><title>任務遂行</title><rect class="label-frame" x="538.2" y="69" width="54" height="18" rx="2" fill="white" fill-opacity="1" stroke="#a75353" stroke-width="1.2"/><text x="565.2" y="81" text-anchor="middle">任務遂行</text></g><g class="edge-label task-label"><title>離脱</title><rect class="label-frame" x="815.3333333333333" y="69" width="32" height="18" rx="2" fill="white" fill-opacity="1" stroke="#a75353" stroke-width="1.2"/><text x="831.3333333333333" y="81" text-anchor="middle">離脱</text></g><g class="edge-label task-label"><title>監視</title><rect class="label-frame" x="266.43333333333334" y="511" width="32" height="18" rx="2" fill="white" fill-opacity="1" stroke="#236d78" stroke-width="1.2"/><text x="282.43333333333334" y="523" text-anchor="middle">監視</text></g><g class="edge-label task-label"><title>探知・追尾</title><rect class="label-frame" x="649.1333333333333" y="511" width="65" height="18" rx="2" fill="white" fill-opacity="1" stroke="#236d78" stroke-width="1.2"/><text x="681.6333333333333" y="523" text-anchor="middle">探知・追尾</text></g><g class="edge-label task-label"><title>待機</title><rect class="label-frame" x="239.82" y="299" width="32" height="18" rx="2" fill="white" fill-opacity="1" stroke="#8061a8" stroke-width="1.2"/><text x="255.82" y="311" text-anchor="middle">待機</text></g><g class="edge-label task-label"><title>識別</title><rect class="label-frame" x="504.7058333333333" y="299" width="32" height="18" rx="2" fill="white" fill-opacity="1" stroke="#8061a8" stroke-width="1.2"/><text x="520.7058333333333" y="311" text-anchor="middle">識別</text></g><g class="edge-label task-label"><title>交戦判断</title><rect class="label-frame" x="674.4599999999999" y="299" width="21" height="18" rx="2" fill="white" fill-opacity="1" stroke="#8061a8" stroke-width="1.2"/><text x="684.9599999999999" y="311" text-anchor="middle">…</text></g><g class="edge-label task-label"><title>哨戒</title><rect class="label-frame" x="330.8875" y="417" width="32" height="18" rx="2" fill="white" fill-opacity="1" stroke="#a56c24" stroke-width="1.2"/><text x="346.8875" y="429" text-anchor="middle">哨戒</text></g><g class="edge-label task-label"><title>接敵</title><rect class="label-frame" x="723.8499999999999" y="417" width="32" height="18" rx="2" fill="white" fill-opacity="1" stroke="#a56c24" stroke-width="1.2"/><text x="739.8499999999999" y="429" text-anchor="middle">接敵</text></g><g class="edge-label task-label"><title>待機</title><rect class="label-frame" x="482.66666666666663" y="629" width="32" height="18" rx="2" fill="white" fill-opacity="1" stroke="#397aa0" stroke-width="1.2"/><text x="498.66666666666663" y="641" text-anchor="middle">待機</text></g><g class="edge-label task-label"><title>誘導</title><rect class="label-frame" x="865.2333333333333" y="629" width="32" height="18" rx="2" fill="white" fill-opacity="1" stroke="#397aa0" stroke-width="1.2"/><text x="881.2333333333333" y="641" text-anchor="middle">誘導</text></g><g class="edge-label task-label"><title>離脱成立</title><rect class="label-frame" x="944.0533333333334" y="69" width="54" height="18" rx="2" fill="white" fill-opacity="1" stroke="#a75353" stroke-width="1.2"/><text x="971.0533333333334" y="81" text-anchor="middle">離脱成立</text></g><g class="edge-label task-label"><title>阻止成功</title><rect class="label-frame" x="904.1333333333333" y="123.5" width="54" height="18" rx="2" fill="white" fill-opacity="1" stroke="#a75353" stroke-width="1.2"/><text x="931.1333333333333" y="135.5" text-anchor="middle">阻止成功</text></g><g class="edge-label causal-label"><title>発見</title><path class="label-leader" d="M398.8666666666667,299 L342.8666666666667,299" stroke="#9aa8ad" stroke-width="0.7" fill="none"/><rect class="label-background" x="326.8666666666667" y="290" width="32" height="18" rx="3" fill="white" fill-opacity="0.94"/><path class="label-underline" d="M330.8666666666667,307 H354.8666666666667" fill="none" stroke="#a75353" stroke-width="1.5"/><text x="342.8666666666667" y="302" text-anchor="middle">発見</text></g><g class="edge-label causal-label"><title>探知情報</title><path class="label-leader" d="M457.0833333333333,415.5 L513.0833333333333,415.5" stroke="#9aa8ad" stroke-width="0.7" fill="none"/><rect class="label-background" x="486.0833333333333" y="406.5" width="54" height="18" rx="3" fill="white" fill-opacity="0.94"/><path class="label-underline" d="M490.0833333333333,423.5 H536.0833333333333" fill="none" stroke="#236d78" stroke-width="1.5"/><text x="513.0833333333333" y="418.5" text-anchor="middle">探知情報</text></g><g class="edge-label causal-label"><title>接敵指示</title><path class="label-leader" d="M671.6533333333333,354.79999999999984 L727.6533333333333,354.79999999999984" stroke="#9aa8ad" stroke-width="0.7" fill="none"/><rect class="label-background" x="700.6533333333333" y="345.79999999999984" width="54" height="18" rx="3" fill="white" fill-opacity="0.94"/><path class="label-underline" d="M704.6533333333333,362.79999999999984 H750.6533333333333" fill="none" stroke="#8061a8" stroke-width="1.5"/><text x="727.6533333333333" y="357.79999999999984" text-anchor="middle">接敵指示</text></g><g class="edge-label causal-label"><title>発射</title><path class="label-leader" d="M831.3333333333333,532 L887.3333333333333,532" stroke="#9aa8ad" stroke-width="0.7" fill="none"/><rect class="label-background" x="871.3333333333333" y="523" width="32" height="18" rx="3" fill="white" fill-opacity="0.94"/><path class="label-underline" d="M875.3333333333333,540 H899.3333333333333" fill="none" stroke="#a56c24" stroke-width="1.5"/><text x="887.3333333333333" y="535" text-anchor="middle">発射</text></g><g class="edge-label causal-label"><title>遅延する介入案</title><rect class="label-background" x="1010.1666666666665" y="313.5383034915565" width="87" height="18" rx="3" fill="white" fill-opacity="0.94"/><path class="label-underline" d="M1014.1666666666665,330.5383034915565 H1093.1666666666665" fill="none" stroke="#397aa0" stroke-width="1.5"/><text x="1053.6666666666665" y="325.5383034915565" text-anchor="middle">遅延する介入案</text></g><g class="technology-target"><title>命中・離脱阻止</title><path d="M931.1333333333333,631 L931.1333333333333,679" fill="none" stroke="#397aa0" stroke-width=".7"/><rect x="887.6333333333333" y="679" width="87" height="18" rx="2" fill="white" stroke="none"/><path class="label-underline" d="M891.6333333333333,696 H970.6333333333333" fill="none" stroke="#397aa0" stroke-width="1.5"/><text x="931.1333333333333" y="691" text-anchor="middle">命中・離脱阻止</text></g><g class="technology-target"><title>攻撃</title><path d="M881.2333333333333,426 L881.2333333333333,450" fill="none" stroke="#a56c24" stroke-width=".7"/><rect x="865.2333333333333" y="450" width="32" height="18" rx="2" fill="white" stroke="#a56c24"/><text x="881.2333333333333" y="462" text-anchor="middle">攻撃</text></g><g class="technology-target"><title>移行</title><path d="M748.1666666666666,78 L748.1666666666666,126" fill="none" stroke="#a75353" stroke-width=".7"/><rect x="732.1666666666666" y="126" width="32" height="18" rx="2" fill="white" stroke="#a75353"/><text x="748.1666666666666" y="138" text-anchor="middle">移行</text></g><g class="technology-target"><title>移行</title><path d="M598.4666666666666,308 L598.4666666666666,356" fill="none" stroke="#8061a8" stroke-width=".7"/><rect x="582.4666666666666" y="356" width="32" height="18" rx="2" fill="white" stroke="#8061a8"/><text x="598.4666666666666" y="368" text-anchor="middle">移行</text></g><g class="technology-summary"><title>交戦判断: 既存システム基盤 · existing · TRL 9（選択して詳細を表示）</title><rect x="691.4599999999999" y="300" width="32" height="16" rx="3" fill="#fffdf5" stroke="#8061a8"/><text x="707.4599999999999" y="312" text-anchor="middle" font-size="10">技1</text></g><g class="technology-summary"><title>誘導: 既存システム基盤 · existing · TRL 9（選択して詳細を表示）</title><rect x="893.2333333333333" y="630" width="32" height="16" rx="3" fill="#fffdf5" stroke="#397aa0"/><text x="909.2333333333333" y="642" text-anchor="middle" font-size="10">技1</text></g><g class="technology-summary"><title>移行: 既存システム基盤 · existing · TRL 9（選択して詳細を表示）</title><rect x="366.23333333333335" y="83" width="32" height="16" rx="3" fill="#fffdf5" stroke="#a75353"/><text x="382.23333333333335" y="95" text-anchor="middle" font-size="10">技1</text></g><g class="technology-summary"><title>離脱成立: 既存システム基盤 · existing · TRL 9 / 既存システム基盤 · existing · TRL 9（選択して詳細を表示）</title><rect x="994.0533333333334" y="70" width="32" height="16" rx="3" fill="#fffdf5" stroke="#a75353"/><text x="1010.0533333333334" y="82" text-anchor="middle" font-size="10">技2</text></g><g class="technology-summary"><title>移行: 既存システム基盤 · existing · TRL 9（選択して詳細を表示）</title><rect x="649" y="431" width="32" height="16" rx="3" fill="#fffdf5" stroke="#a56c24"/><text x="665" y="443" text-anchor="middle" font-size="10">技1</text></g><g class="technology-summary"><title>移行: 既存システム基盤 · existing · TRL 9（選択して詳細を表示）</title><rect x="798.6999999999999" y="431" width="32" height="16" rx="3" fill="#fffdf5" stroke="#a56c24"/><text x="814.6999999999999" y="443" text-anchor="middle" font-size="10">技1</text></g><g class="technology-tag"><title>既存システム基盤 / existing / TRL 9 · 探知・追尾</title><rect x="635.6333333333333" y="534" width="92" height="20" rx="4" fill="#fffdf5" stroke="#35765d" stroke-width=".8"/><text x="681.6333333333333" y="548" font-size="10" text-anchor="middle" fill="#35765d">既存システム基盤</text></g><g class="technology-tag"><title>協調音響識別 / research / TRL 4 · 探知・追尾</title><rect x="645.6333333333333" y="558" width="72" height="20" rx="4" fill="#fffdf5" stroke="#9b6b23" stroke-width=".8"/><text x="681.6333333333333" y="572" font-size="10" text-anchor="middle" fill="#9b6b23">協調音響識別</text></g><g class="technology-tag"><title>既存システム基盤 / existing / TRL 9 · 接敵指示</title><rect x="681.6533333333333" y="368.79999999999984" width="92" height="20" rx="4" fill="#fffdf5" stroke="#35765d" stroke-width=".8"/><text x="727.6533333333333" y="382.79999999999984" font-size="10" text-anchor="middle" fill="#35765d">既存システム基盤</text></g><g class="technology-tag"><title>水中指令通信 / gap / TRL 未評価 · 接敵指示</title><rect x="691.6533333333333" y="392.79999999999984" width="72" height="20" rx="4" fill="#fffdf5" stroke="#af4545" stroke-width=".8"/><text x="727.6533333333333" y="406.79999999999984" font-size="10" text-anchor="middle" fill="#af4545">水中指令通信</text></g><g class="technology-tag"><title>既存システム基盤 / existing / TRL 9 · 発見</title><rect x="296.8666666666667" y="313" width="92" height="20" rx="4" fill="#fffdf5" stroke="#35765d" stroke-width=".8"/><text x="342.8666666666667" y="327" font-size="10" text-anchor="middle" fill="#35765d">既存システム基盤</text></g><g class="technology-tag"><title>既存システム基盤 / existing / TRL 9 · 探知情報</title><rect x="467.08333333333326" y="429.5" width="92" height="20" rx="4" fill="#fffdf5" stroke="#35765d" stroke-width=".8"/><text x="513.0833333333333" y="443.5" font-size="10" text-anchor="middle" fill="#35765d">既存システム基盤</text></g><g class="technology-tag"><title>既存システム基盤 / existing / TRL 9 · 発射</title><rect x="841.3333333333333" y="546" width="92" height="20" rx="4" fill="#fffdf5" stroke="#35765d" stroke-width=".8"/><text x="887.3333333333333" y="560" font-size="10" text-anchor="middle" fill="#35765d">既存システム基盤</text></g><g class="technology-tag"><title>既存システム基盤 / existing / TRL 9 · 遅延する介入案</title><rect x="1007.6666666666665" y="336.5383034915565" width="92" height="20" rx="4" fill="#fffdf5" stroke="#35765d" stroke-width=".8"/><text x="1053.6666666666665" y="350.5383034915565" font-size="10" text-anchor="middle" fill="#35765d">既存システム基盤</text></g><g class="technology-tag"><title>既存システム基盤 / existing / TRL 9 · 進出</title><rect x="219.8" y="92" width="92" height="20" rx="4" fill="#fffdf5" stroke="#35765d" stroke-width=".8"/><text x="265.8" y="106" font-size="10" text-anchor="middle" fill="#35765d">既存システム基盤</text></g><g class="technology-tag"><title>既存システム基盤 / existing / TRL 9 · 任務遂行</title><rect x="519.2" y="92" width="92" height="20" rx="4" fill="#fffdf5" stroke="#35765d" stroke-width=".8"/><text x="565.2" y="106" font-size="10" text-anchor="middle" fill="#35765d">既存システム基盤</text></g><g class="technology-tag"><title>既存システム基盤 / existing / TRL 9 · 離脱</title><rect x="785.3333333333333" y="92" width="92" height="20" rx="4" fill="#fffdf5" stroke="#35765d" stroke-width=".8"/><text x="831.3333333333333" y="106" font-size="10" text-anchor="middle" fill="#35765d">既存システム基盤</text></g><g class="technology-tag"><title>既存システム基盤 / existing / TRL 9 · 監視</title><rect x="236.43333333333334" y="534" width="92" height="20" rx="4" fill="#fffdf5" stroke="#35765d" stroke-width=".8"/><text x="282.43333333333334" y="548" font-size="10" text-anchor="middle" fill="#35765d">既存システム基盤</text></g><g class="technology-tag"><title>既存システム基盤 / existing / TRL 9 · 待機</title><rect x="219.82" y="322" width="72" height="20" rx="4" fill="#fffdf5" stroke="#35765d" stroke-width=".8"/><text x="255.82" y="336" font-size="10" text-anchor="middle" fill="#35765d">既存システ…</text></g><g class="technology-tag"><title>既存システム基盤 / existing / TRL 9 · 識別</title><rect x="474.7058333333333" y="322" width="92" height="20" rx="4" fill="#fffdf5" stroke="#35765d" stroke-width=".8"/><text x="520.7058333333333" y="336" font-size="10" text-anchor="middle" fill="#35765d">既存システム基盤</text></g><g class="technology-tag"><title>既存システム基盤 / existing / TRL 9 · 哨戒</title><rect x="300.8875" y="440" width="92" height="20" rx="4" fill="#fffdf5" stroke="#35765d" stroke-width=".8"/><text x="346.8875" y="454" font-size="10" text-anchor="middle" fill="#35765d">既存システム基盤</text></g><g class="technology-tag"><title>既存システム基盤 / existing / TRL 9 · 接敵</title><rect x="703.8499999999999" y="440" width="72" height="20" rx="4" fill="#fffdf5" stroke="#35765d" stroke-width=".8"/><text x="739.8499999999999" y="454" font-size="10" text-anchor="middle" fill="#35765d">既存システ…</text></g><g class="technology-tag"><title>既存システム基盤 / existing / TRL 9 · 待機</title><rect x="452.66666666666663" y="652" width="92" height="20" rx="4" fill="#fffdf5" stroke="#35765d" stroke-width=".8"/><text x="498.66666666666663" y="666" font-size="10" text-anchor="middle" fill="#35765d">既存システム基盤</text></g><g class="technology-tag"><title>既存システム基盤 / existing / TRL 9 · 命中・離脱阻止</title><rect x="895.1333333333333" y="702" width="72" height="20" rx="4" fill="#fffdf5" stroke="#35765d" stroke-width=".8"/><text x="931.1333333333333" y="716" font-size="10" text-anchor="middle" fill="#35765d">既存システ…</text></g><g class="technology-tag"><title>既存システム基盤 / existing / TRL 9 · 攻撃</title><rect x="845.2333333333333" y="473" width="72" height="20" rx="4" fill="#fffdf5" stroke="#35765d" stroke-width=".8"/><text x="881.2333333333333" y="487" font-size="10" text-anchor="middle" fill="#35765d">既存システ…</text></g><g class="technology-tag"><title>既存システム基盤 / existing / TRL 9 · 移行</title><rect x="712.1666666666666" y="149" width="72" height="20" rx="4" fill="#fffdf5" stroke="#35765d" stroke-width=".8"/><text x="748.1666666666666" y="163" font-size="10" text-anchor="middle" fill="#35765d">既存システ…</text></g><g class="technology-tag"><title>既存システム基盤 / existing / TRL 9 · 移行</title><rect x="562.4666666666666" y="379" width="72" height="20" rx="4" fill="#fffdf5" stroke="#35765d" stroke-width=".8"/><text x="598.4666666666666" y="393" font-size="10" text-anchor="middle" fill="#35765d">既存システ…</text></g></g><g class="actor"><rect x="0" y="55" width="149" height="228" fill="#f6f9f9"/><path d="M2,62 V276" stroke="#a75353" stroke-width="3"/><text x="28" y="82" font-weight="600" font-size="11">敵UUV</text><title>敵UUV</title></g><g class="actor"><rect x="0" y="285" width="149" height="116" fill="#f6f9f9"/><path d="M2,292 V394" stroke="#8061a8" stroke-width="3"/><text x="28" y="312" font-weight="600" font-size="11">管制</text><title>管制</title></g><g class="actor"><rect x="0" y="403" width="149" height="92" fill="#f6f9f9"/><path d="M2,410 V488" stroke="#a56c24" stroke-width="3"/><text class="collapse-toggle" data-collapse="uuv" x="12" y="430" font-size="13">▾</text><text x="28" y="430" font-weight="600" font-size="11">潜水艦</text><title>潜水艦</title></g><g class="actor"><rect x="0" y="497" width="149" height="116" fill="#f6f9f9"/><path d="M2,504 V606" stroke="#236d78" stroke-width="3"/><text x="41" y="524" font-weight="600" font-size="11">ソナー</text><title>ソナー</title></g><g class="actor"><rect x="0" y="615" width="149" height="92" fill="#f6f9f9"/><path d="M2,622 V700" stroke="#397aa0" stroke-width="3"/><text x="41" y="642" font-weight="600" font-size="11">魚雷</text><title>魚雷</title></g></svg>
